<svg width="319" height="31" viewBox="0 0 319 31" fill="none" xmlns="http://www.w3.org/2000/svg">
<path d="M113.546 16.5355L113.002 15.1377L113.546 16.5355ZM242.374 22.686L243.015 21.33L242.374 22.686ZM318.413 14.2561C318.691 13.4759 318.284 12.6177 317.504 12.3392L304.79 7.80072C304.01 7.52222 303.152 7.92893 302.873 8.70915C302.595 9.48936 303.001 10.3476 303.781 10.6261L315.083 14.6603L311.049 25.9618C310.77 26.7421 311.177 27.6003 311.957 27.8788C312.738 28.1573 313.596 27.7506 313.874 26.9704L318.413 14.2561ZM0.726971 5.92774C10.3919 21.4364 46.4099 44.277 114.09 17.9334L113.002 15.1377C46.1986 41.14 11.9373 18.244 3.27303 4.34105L0.726971 5.92774ZM114.09 17.9334C155.901 1.65917 184.017 1.47507 203.469 6.12329C213.205 8.44997 220.827 12.0003 226.964 15.4219C230.04 17.1367 232.736 18.815 235.166 20.3078C237.574 21.7871 239.759 23.1084 241.733 24.042L243.015 21.33C241.215 20.4784 239.169 19.2462 236.736 17.7515C234.324 16.2703 231.568 14.5541 228.425 12.8016C222.124 9.28859 214.242 5.61333 204.166 3.20544C183.992 -1.61546 155.244 -1.30442 113.002 15.1377L114.09 17.9334ZM241.733 24.042C273.911 39.2592 298.967 23.9576 317.642 15.1073L316.358 12.3963C297.328 21.4144 273.68 35.8317 243.015 21.33L241.733 24.042Z" fill="#FCA12C"/>
</svg>
