<svg width="1029" height="304" viewBox="0 0 1029 304" fill="none" xmlns="http://www.w3.org/2000/svg">
<path d="M45.293 61.9111C46.9283 61.6688 48.5637 60.9117 50.199 59.6398C51.8949 58.3678 53.4394 56.7628 54.8325 54.8246C56.2255 52.8258 57.4369 50.6151 58.4666 48.1924C59.5568 45.7697 60.3139 43.2864 60.7379 40.7425C61.2224 38.1986 61.3436 35.7153 61.1013 33.2926C60.9196 30.8699 60.2533 28.6894 59.1025 26.7513C58.2546 25.237 57.1341 23.9954 55.741 23.0263C54.4085 21.9967 53.1366 20.967 51.9252 19.9373C50.7744 18.8471 49.8659 17.6055 49.1996 16.2124C48.5334 14.7588 48.4728 12.8206 49.0179 10.3978C49.2602 9.24705 49.7145 8.15683 50.3807 7.12717C51.047 6.09751 51.8646 5.21927 52.8337 4.49245C53.8634 3.70507 55.0445 3.09939 56.377 2.67541C57.7095 2.25143 59.1631 2.06973 60.7379 2.1303L101.985 2.22115C100.713 3.73535 99.6832 5.09814 98.8958 6.3095C98.169 7.4603 97.5936 8.61109 97.1696 9.76189C96.8062 10.8521 96.5639 12.0029 96.4428 13.2143C96.3217 14.4256 96.2611 15.7884 96.2611 17.3026V61.9111H101.44C103.014 61.9111 103.802 62.9407 103.802 65L103.711 81.5351C103.711 82.3225 103.65 82.8071 103.529 82.9888C103.408 83.2311 103.226 83.3522 102.984 83.3522C102.318 83.3522 101.743 83.2311 101.258 82.9888C100.834 82.7465 100.41 82.3528 99.986 81.8077C99.5621 81.2626 99.1078 80.5661 98.6233 79.7181C98.1993 78.9307 97.6845 77.9313 97.0788 76.72C96.1097 75.2058 95.2617 73.7824 94.5349 72.4499C93.8687 71.178 93.1116 70.0575 92.2636 69.0884C91.4156 68.1799 90.386 67.4531 89.1746 66.9079C88.0238 66.3628 86.5399 66.06 84.7229 65.9994H59.1025C57.2855 66.06 55.8319 66.3628 54.7416 66.9079C53.6514 67.4531 52.7126 68.2102 51.9252 69.1792C51.1378 70.1483 50.3807 71.2688 49.6539 72.5408C48.9877 73.8127 48.2003 75.2058 47.2917 76.72C45.9592 79.0821 44.7782 80.778 43.7485 81.8077C42.7794 82.8374 41.6286 83.3522 40.2961 83.3522C40.0539 83.3522 39.8721 83.2311 39.751 82.9888C39.6299 82.8071 39.5693 82.3225 39.5693 81.5351V65C39.5693 62.9407 40.3567 61.9111 41.9315 61.9111H45.293ZM75.7285 18.4837C74.8805 18.302 73.8206 18.2111 72.5487 18.2111C71.2767 18.1506 69.9745 18.2414 68.642 18.4837C67.3701 18.6654 66.1284 18.9682 64.9171 19.3922C63.7663 19.8162 62.8578 20.3916 62.1915 21.1184C61.5858 21.8452 61.3436 22.7235 61.4647 23.7531C61.5858 24.7828 62.2824 25.9942 63.5543 27.3872C65.9165 29.9917 67.8849 32.8384 69.4597 35.9273C71.095 38.9557 72.0036 42.0144 72.1853 45.1034C72.367 48.1924 71.6401 51.1905 70.0048 54.0978C68.43 57.005 65.6136 59.6095 61.5555 61.9111H81.4522L81.6339 28.75C81.6339 25.6005 81.2099 23.1474 80.362 21.391C79.514 19.5739 77.9695 18.6048 75.7285 18.4837Z" fill="#5B6832"/>
<path d="M121.225 65.9994C119.105 65.9994 117.197 65.6966 115.501 65.0909C113.805 64.4852 112.352 63.6675 111.14 62.6379C109.929 61.5477 108.99 60.2757 108.324 58.8221C107.658 57.3079 107.324 55.6725 107.324 53.9161C107.324 49.6763 109.263 45.9211 113.139 42.6504C117.015 39.3191 122.89 36.3513 130.764 33.7469C131.309 33.5652 131.703 33.3229 131.945 33.0201C132.188 32.6566 132.248 32.3235 132.127 32.0207C132.067 31.7178 131.794 31.4756 131.309 31.2939C130.886 31.1122 130.28 31.0516 129.492 31.1122C127.857 31.2333 125.707 31.8693 123.042 33.0201C120.437 34.1103 117.682 35.4731 114.774 37.1084C112.412 38.5015 110.716 38.8952 109.687 38.2895C108.718 37.6232 108.233 36.0182 108.233 33.4743V21.9361C108.233 17.2118 107.96 13.3354 107.415 10.307C106.931 7.21802 106.143 4.64388 105.053 2.58456V2.40285H149.117V18.302C149.117 19.7556 148.39 20.2402 146.936 19.7556C145.361 19.2105 143.756 18.6957 142.121 18.2111C140.486 17.7266 138.88 17.3026 137.306 16.9392C135.792 16.5152 134.338 16.2124 132.945 16.0307C131.612 15.7884 130.492 15.6673 129.583 15.6673C127.645 15.6673 126.07 16.1215 124.859 17.0301C123.648 17.878 123.042 19.0591 123.042 20.5733V23.6623C123.042 25.1159 123.375 26.1153 124.041 26.6604C124.708 27.1449 125.525 27.4175 126.494 27.4781C127.524 27.5386 128.644 27.4781 129.856 27.2964C131.067 27.1147 132.218 27.0238 133.308 27.0238C135.065 27.0238 136.488 27.4175 137.578 28.2049C138.669 28.9923 139.214 30.0522 139.214 31.3847C139.214 32.5961 138.79 33.6257 137.942 34.4737C137.094 35.3216 135.64 36.1999 133.581 37.1084C129.159 38.986 126.04 40.5305 124.223 41.7419C122.467 42.9532 121.588 44.1646 121.588 45.376C121.588 46.0422 121.831 46.6479 122.315 47.193C122.86 47.6775 123.557 48.1318 124.405 48.5558C125.313 48.9192 126.313 49.222 127.403 49.4643C128.493 49.646 129.614 49.7369 130.764 49.7369C133.672 49.7369 136.488 49.434 139.214 48.8283C141.939 48.1621 144.483 47.2233 146.845 46.0119C147.633 45.588 148.208 45.4365 148.571 45.5577C148.935 45.6182 149.117 46.0725 149.117 46.9204V65.9994H121.225Z" fill="#5B6832"/>
<path d="M199.075 50.5545C199.741 54.6732 200.407 57.9136 201.073 60.2757C201.8 62.5773 202.618 64.3944 203.526 65.7269V65.9994H178.996V65.7269C179.784 64.8183 180.45 63.819 180.995 62.7287C181.601 61.6385 182.025 60.4271 182.267 59.0947C182.57 57.7016 182.721 56.1268 182.721 54.3703C182.721 52.6139 182.57 50.5545 182.267 48.1924L179.36 28.75C178.754 24.5708 177.391 21.1487 175.271 18.4837C173.212 15.7581 170.638 14.3953 167.549 14.3953C165.792 14.3953 164.339 15.001 163.188 16.2124C162.098 17.3632 161.462 18.8168 161.28 20.5733C161.159 22.2692 161.431 23.9045 162.098 25.4793C162.764 27.0541 163.612 28.6289 164.642 30.2036C165.732 31.7178 166.883 33.1715 168.094 34.5645C169.366 35.9576 170.517 37.5627 171.546 39.3797C172.576 41.1362 173.394 43.0744 173.999 45.1943C174.605 47.3141 174.817 49.6157 174.635 52.099C174.514 53.7344 173.999 55.4908 173.091 57.3685C172.182 59.1855 170.789 60.8511 168.912 62.3653C167.095 63.819 164.732 64.9395 161.825 65.7269C158.918 66.4537 155.375 66.5748 151.195 66.0903C149.681 65.848 149.348 65.0606 150.196 63.7281C151.286 62.2745 152.286 60.6089 153.194 58.7312C154.163 56.7931 155.011 54.7943 155.738 52.735C156.465 50.6151 157.071 48.4649 157.555 46.2845C158.04 44.0435 158.373 41.8933 158.555 39.834C158.736 37.3507 158.676 35.1097 158.373 33.1109C158.131 31.0516 157.828 28.9923 157.464 26.933C157.101 24.8736 156.768 22.8749 156.465 20.9367C156.162 18.938 156.101 16.9392 156.283 14.9405C156.404 13.0628 157.04 11.3669 158.191 9.85274C159.402 8.27796 160.977 6.94546 162.915 5.85524C164.914 4.76501 167.246 3.91706 169.911 3.31137C172.576 2.70569 175.483 2.43314 178.633 2.4937H192.17L199.075 50.5545Z" fill="#5B6832"/>
<path d="M219.891 66.5445C218.135 66.6051 216.499 66.3023 214.985 65.636C213.471 64.9698 212.169 64.0612 211.078 62.9104C209.988 61.6991 209.11 60.306 208.444 58.7312C207.838 57.0959 207.535 55.3697 207.535 53.5527C207.596 51.3722 207.717 49.2826 207.899 47.2839C208.141 45.2851 208.383 43.2864 208.625 41.2876C208.868 39.2889 209.08 37.2295 209.261 35.1097C209.504 32.9292 209.655 30.5973 209.716 28.114C209.776 25.8124 209.685 23.4503 209.443 21.0276C209.261 18.5443 208.928 16.1821 208.444 13.9411C208.02 11.6395 207.384 9.51961 206.536 7.58143C205.748 5.64325 204.779 4.03819 203.629 2.76626V2.58456L221.072 2.4937C222.708 2.4937 223.979 3.00853 224.888 4.03819C225.857 5.06785 226.554 6.33978 226.978 7.85399C227.462 9.36819 227.735 11.0035 227.795 12.76C227.916 14.4559 227.977 16.0307 227.977 17.4843C227.856 20.9973 227.523 24.4497 226.978 27.8415C226.432 31.2333 225.827 34.504 225.161 37.6535C224.494 40.7425 223.858 43.6801 223.253 46.4662C222.647 49.1918 222.344 51.6448 222.344 53.8252C222.284 55.6423 222.374 56.9748 222.617 57.8227C222.859 58.6101 223.313 59.0038 223.979 59.0038C224.888 59.0038 225.766 58.0953 226.614 56.2782C227.462 54.4612 228.159 52.099 228.704 49.1918C228.825 48.5255 228.976 47.5261 229.158 46.1936C229.4 44.8006 229.673 43.2561 229.976 41.5602C230.279 39.8037 230.581 37.9866 230.884 36.109C231.248 34.1709 231.581 32.2932 231.884 30.4762C232.186 28.5986 232.429 26.9027 232.61 25.3885C232.853 23.8137 233.065 22.572 233.246 21.6635C234.397 14.8799 236.245 9.88302 238.788 6.67291C241.393 3.4628 244.421 1.82746 247.874 1.76689C249.509 1.76689 251.053 2.10001 252.507 2.76626C253.961 3.37194 255.233 4.2199 256.323 5.31012C257.413 6.40035 258.231 7.70257 258.776 9.21677C259.382 10.731 259.654 12.336 259.594 14.0319C259.594 16.2124 259.382 18.3626 258.958 20.4824C258.594 22.5418 258.17 24.6314 257.686 26.7513C257.262 28.8711 256.838 31.0516 256.414 33.2926C256.05 35.5336 255.838 37.8958 255.778 40.3791C255.717 42.6807 255.869 45.0731 256.232 47.5564C256.595 49.9791 257.11 52.3413 257.777 54.6429C258.443 56.8839 259.23 58.9735 260.139 60.9117C261.108 62.8499 262.198 64.4246 263.409 65.636V65.8177L245.966 65.9994C243.058 65.9994 240.969 64.9092 239.697 62.7287C238.425 60.5483 237.85 57.1868 237.971 52.6441C238.031 48.5861 238.637 45.0731 239.788 42.1053C240.939 39.0769 242.21 36.3513 243.604 33.9286C245.057 31.5059 246.359 29.2345 247.51 27.1147C248.661 24.9948 249.236 22.784 249.236 20.4824C249.297 18.6654 248.903 17.1512 248.055 15.9398C247.207 14.7285 246.178 14.1228 244.966 14.1228C241.514 14.1228 238.667 21.2396 236.426 35.4731L233.428 54.0069C232.822 57.9439 231.278 61.0328 228.795 63.2739C226.311 65.4543 223.344 66.5445 219.891 66.5445Z" fill="#5B6832"/>
<path d="M291.285 67.4531C287.651 67.4531 284.229 66.6354 281.019 65C277.809 63.3647 274.993 61.154 272.57 58.3678C270.147 55.5211 268.179 52.1899 266.664 48.3741C265.211 44.5583 264.393 40.4397 264.211 36.0182C264.03 31.3544 264.545 26.9632 265.756 22.8446C266.967 18.6654 268.693 15.0313 270.934 11.9423C273.175 8.85336 275.84 6.40035 278.929 4.5833C282.018 2.76626 285.35 1.85774 288.923 1.85774C290.922 1.85774 292.739 1.97888 294.374 2.22115C296.07 2.40285 297.736 2.58456 299.371 2.76626C301.007 2.94797 302.702 3.00854 304.459 2.94797C306.215 2.8874 308.184 2.58456 310.364 2.03944C311.273 1.85774 311.909 2.19087 312.272 3.03882C312.999 5.21927 313.332 7.24831 313.272 9.12592C313.211 10.943 312.817 12.548 312.091 13.9411C311.364 15.2736 310.304 16.3335 308.911 17.1209C307.518 17.9083 305.822 18.302 303.823 18.302C301.703 18.302 299.644 18.0597 297.645 17.5752C295.707 17.0906 293.829 16.4547 292.012 15.6673C290.256 14.8799 288.529 14.0017 286.834 13.0326C285.198 12.0029 283.623 11.0035 282.109 10.0344C281.08 9.36819 280.05 9.30762 279.02 9.85274C277.991 10.3373 277.052 11.2458 276.204 12.5783C275.417 13.9108 274.75 15.5764 274.205 17.5752C273.66 19.5739 273.387 21.7241 273.387 24.0257C273.387 28.2049 273.933 31.9298 275.023 35.2005C276.174 38.4712 277.748 41.2573 279.747 43.5589C281.806 45.8605 284.229 47.617 287.015 48.8283C289.801 50.0397 292.86 50.6454 296.191 50.6454C301.885 50.6454 306.639 48.6164 310.455 44.5583C310.819 44.1343 311.273 44.0737 311.818 44.3766C312.363 44.6794 312.636 45.5274 312.636 46.9204C312.636 49.8277 312.091 52.523 311 55.0063C309.91 57.4896 308.396 59.67 306.458 61.5477C304.519 63.3647 302.248 64.8183 299.644 65.9086C297.039 66.9382 294.253 67.4531 291.285 67.4531Z" fill="#5B6832"/>
<path d="M314.876 2.40285H337.408C338.437 2.40285 338.922 2.79655 338.861 3.58393C338.861 4.37132 338.589 5.06785 338.044 5.67353C332.714 11.1852 328.777 16.485 326.233 21.5727C323.75 26.5998 322.508 31.6876 322.508 36.8359C322.508 39.1374 323.114 41.2573 324.325 43.1955C325.597 45.1337 327.353 46.8296 329.594 48.2832C331.896 49.6763 334.622 50.7665 337.771 51.5539C340.981 52.3413 344.555 52.735 348.492 52.735C351.581 52.735 354.094 52.1596 356.033 51.0088C358.031 49.7974 359.031 48.1621 359.031 46.1028C359.031 43.5589 358.031 41.651 356.033 40.3791C354.094 39.1072 351.611 38.3198 348.583 38.0169C345.554 37.7141 342.223 37.8352 338.589 38.3803C335.015 38.9255 331.624 39.7128 328.413 40.7425C327.384 41.0453 326.778 40.3185 326.596 38.562C326.354 35.8365 326.627 33.4138 327.414 31.2939C328.201 29.174 329.292 27.3872 330.685 25.9336C332.138 24.4799 333.774 23.3897 335.591 22.6629C337.468 21.8755 339.346 21.4818 341.224 21.4818C344.373 21.4818 347.311 22.1481 350.036 23.4806C352.822 24.8131 355.215 26.6301 357.214 28.9317C359.273 31.2333 360.878 33.9589 362.029 37.1084C363.24 40.1974 363.846 43.5286 363.846 47.1022C363.846 49.9489 363.301 52.5533 362.21 54.9154C361.181 57.217 359.697 59.1855 357.759 60.8208C355.881 62.4562 353.64 63.7281 351.036 64.6366C348.492 65.5452 345.675 65.9994 342.586 65.9994H314.876V65.8177C315.967 63.7584 316.754 61.2145 317.239 58.1861C317.784 55.0972 318.056 51.1905 318.056 46.4662V21.9361C318.056 17.2118 317.784 13.3354 317.239 10.307C316.754 7.21802 315.967 4.64388 314.876 2.58456V2.40285Z" fill="#5B6832"/>
<path d="M399.728 65.8177C400.818 63.7584 401.606 61.2145 402.09 58.1861C402.635 55.0972 402.908 51.1905 402.908 46.4662V9.85274C402.908 8.82308 402.726 8.15683 402.363 7.85399C402.06 7.55115 401.485 7.46029 400.637 7.58143C399.668 7.76314 398.547 8.36882 397.275 9.39848C396.003 10.4281 394.701 11.7606 393.368 13.396C392.036 15.0313 390.703 16.9089 389.371 19.0288C388.099 21.0881 386.918 23.2989 385.828 25.661C385.525 26.3878 385.04 26.6301 384.374 26.3878C383.768 26.085 383.466 25.5096 383.466 24.6617V2.40285H437.159V24.6617C437.159 25.5096 436.826 26.085 436.16 26.3878C435.554 26.6301 435.1 26.3878 434.797 25.661C433.707 23.2989 432.495 21.0881 431.163 19.0288C429.891 16.9089 428.589 15.0313 427.256 13.396C425.924 11.7606 424.622 10.4281 423.35 9.39848C422.078 8.36882 420.957 7.76314 419.988 7.58143C419.14 7.46029 418.535 7.55115 418.171 7.85399C417.868 8.15683 417.717 8.82308 417.717 9.85274V46.4662C417.717 51.1905 417.959 55.0972 418.444 58.1861C418.989 61.2145 419.806 63.7584 420.897 65.8177V65.9994H399.728V65.8177Z" fill="#5B6832"/>
<path d="M455.444 65.9994C453.324 65.9994 451.416 65.6966 449.72 65.0909C448.024 64.4852 446.571 63.6675 445.359 62.6379C444.148 61.5477 443.209 60.2757 442.543 58.8221C441.877 57.3079 441.544 55.6725 441.544 53.9161C441.544 49.6763 443.482 45.9211 447.358 42.6504C451.234 39.3191 457.11 36.3513 464.983 33.7469C465.529 33.5652 465.922 33.3229 466.165 33.0201C466.407 32.6566 466.467 32.3235 466.346 32.0207C466.286 31.7178 466.013 31.4756 465.529 31.2939C465.105 31.1122 464.499 31.0516 463.712 31.1122C462.076 31.2333 459.926 31.8693 457.261 33.0201C454.657 34.1103 451.901 35.4731 448.993 37.1084C446.631 38.5015 444.935 38.8952 443.906 38.2895C442.937 37.6232 442.452 36.0182 442.452 33.4743V21.9361C442.452 17.2118 442.18 13.3354 441.634 10.307C441.15 7.21802 440.363 4.64388 439.272 2.58456V2.40285H483.336V18.302C483.336 19.7556 482.609 20.2402 481.155 19.7556C479.58 19.2105 477.975 18.6957 476.34 18.2111C474.705 17.7266 473.1 17.3026 471.525 16.9392C470.011 16.5152 468.557 16.2124 467.164 16.0307C465.831 15.7884 464.711 15.6673 463.802 15.6673C461.864 15.6673 460.289 16.1215 459.078 17.0301C457.867 17.878 457.261 19.0591 457.261 20.5733V23.6623C457.261 25.1159 457.594 26.1153 458.26 26.6604C458.927 27.1449 459.744 27.4175 460.713 27.4781C461.743 27.5386 462.864 27.4781 464.075 27.2964C465.286 27.1147 466.437 27.0238 467.527 27.0238C469.284 27.0238 470.707 27.4175 471.797 28.2049C472.888 28.9923 473.433 30.0522 473.433 31.3847C473.433 32.5961 473.009 33.6257 472.161 34.4737C471.313 35.3216 469.859 36.1999 467.8 37.1084C463.378 38.986 460.259 40.5305 458.442 41.7419C456.686 42.9532 455.807 44.1646 455.807 45.376C455.807 46.0422 456.05 46.6479 456.534 47.193C457.079 47.6775 457.776 48.1318 458.624 48.5558C459.532 48.9192 460.532 49.222 461.622 49.4643C462.712 49.646 463.833 49.7369 464.983 49.7369C467.891 49.7369 470.707 49.434 473.433 48.8283C476.158 48.1621 478.702 47.2233 481.064 46.0119C481.852 45.588 482.427 45.4365 482.79 45.5577C483.154 45.6182 483.336 46.0725 483.336 46.9204V65.9994H455.444Z" fill="#5B6832"/>
<path d="M517.122 66.7262C513.67 66.7262 510.732 64.6064 508.309 60.3666C505.947 56.0662 504.16 49.858 502.949 41.7419C502.646 39.8643 502.283 37.6535 501.859 35.1097C501.495 32.5052 501.132 29.9916 500.769 27.5689C500.405 25.1462 500.072 22.996 499.769 21.1184C499.466 19.2408 499.254 18.0294 499.133 17.4843C498.83 15.9096 498.073 15.1222 496.862 15.1222C495.59 15.1222 494.651 16.061 494.046 17.9386C493.5 19.7556 493.228 22.0269 493.228 24.7525C493.228 27.7809 493.561 30.567 494.227 33.1109C494.894 35.6548 495.651 38.0472 496.499 40.2882C497.407 42.5293 498.255 44.6794 499.042 46.7387C499.89 48.7981 500.466 50.8574 500.769 52.9167C501.132 54.9154 501.102 57.005 500.678 59.1855C500.254 61.3054 499.224 63.5767 497.589 65.9994H485.142V65.8177C486.232 63.7584 487.02 61.2145 487.504 58.1861C488.049 55.0972 488.322 51.1905 488.322 46.4662V22.5721C488.322 19.3014 488.655 16.3335 489.321 13.6685C489.988 11.0035 490.926 8.73223 492.138 6.85461C493.41 4.977 494.894 3.52336 496.589 2.4937C498.285 1.46405 500.133 0.949219 502.131 0.949219C503.706 0.949219 505.16 1.34291 506.492 2.1303C507.885 2.91768 509.127 4.00791 510.217 5.40098C511.308 6.79404 512.216 8.45967 512.943 10.3978C513.73 12.336 514.306 14.4256 514.669 16.6667L519.575 47.829C519.757 49.222 520.181 49.9186 520.847 49.9186C521.029 49.9186 521.21 49.8883 521.392 49.8277C521.634 49.7066 521.846 49.4643 522.028 49.1009C522.21 48.7375 522.361 48.1924 522.482 47.4656C522.603 46.7387 522.664 45.7697 522.664 44.5583C522.664 42.6201 522.634 39.8643 522.573 36.2907C522.513 32.6566 522.482 28.0838 522.482 22.5721C522.482 19.5436 522.876 16.7272 523.663 14.1228C524.451 11.4578 525.541 9.1562 526.934 7.21802C528.327 5.27984 529.932 3.76564 531.749 2.67541C533.627 1.52462 535.656 0.949219 537.836 0.949219C542.197 0.949219 545.498 2.85711 547.739 6.67291C550.041 10.4887 551.192 15.7884 551.192 22.5721V46.4662C551.192 51.1905 551.434 55.0972 551.918 58.1861C552.464 61.2145 553.281 63.7584 554.371 65.8177V65.9994H538.109C536.898 65.9994 535.716 65.5149 534.566 64.5458C533.415 63.5161 532.627 62.3048 532.203 60.9117C531.477 58.2467 531.295 55.8845 531.658 53.8252C532.022 51.7053 532.567 49.4037 533.294 46.9204C534.081 44.4372 534.838 41.5299 535.565 38.1986C536.292 34.8674 536.655 30.6276 536.655 25.4793C536.655 24.1468 536.564 22.8446 536.383 21.5727C536.262 20.3007 535.989 19.2105 535.565 18.302C535.202 17.3329 534.717 16.5758 534.111 16.0307C533.506 15.425 532.749 15.1222 531.84 15.1222C530.447 15.1222 529.387 16.2427 528.66 18.4837C527.933 20.7247 527.51 24.4799 527.388 29.7494C527.328 31.9904 527.358 34.8068 527.479 38.1986C527.6 41.5905 527.661 45.4971 527.661 49.9186C527.661 55.612 526.692 59.8518 524.754 62.6379C522.815 65.3635 520.272 66.7262 517.122 66.7262Z" fill="#5B6832"/>
<path d="M562.296 75.6298C561.691 75.2058 561.66 74.7212 562.205 74.1761C563.174 73.0859 564.053 72.026 564.84 70.9963C565.688 69.9666 566.445 68.9673 567.111 67.9982C567.717 67.0896 568.111 66.3325 568.292 65.7269C568.535 65.1212 568.626 64.6669 568.565 64.3641C568.565 64.0612 568.444 63.8493 568.202 63.7281C568.02 63.607 567.838 63.5464 567.656 63.5464C567.232 63.5464 566.869 63.6373 566.566 63.819C566.324 64.0007 566.051 64.1824 565.749 64.3641C565.506 64.5458 565.203 64.7275 564.84 64.9092C564.537 65.0909 564.113 65.1817 563.568 65.1817C562.478 65.1817 561.569 64.6366 560.843 63.5464C560.176 62.3956 559.843 60.9723 559.843 59.2764C559.843 58.1256 560.055 57.0656 560.479 56.0965C560.903 55.0669 561.479 54.1886 562.205 53.4618C562.993 52.735 563.871 52.1899 564.84 51.8265C565.87 51.4025 566.93 51.1905 568.02 51.1905C569.11 51.1905 570.14 51.4025 571.109 51.8265C572.138 52.1899 573.017 52.735 573.744 53.4618C574.47 54.1886 575.046 55.0669 575.47 56.0965C575.894 57.0656 576.106 58.1256 576.106 59.2764C576.106 61.6991 575.318 64.3338 573.744 67.1805C572.229 70.0878 569.776 73.5099 566.385 77.4468C566.203 77.6891 565.991 77.7799 565.749 77.7194C565.506 77.7194 565.264 77.6588 565.022 77.5377L562.296 75.6298Z" fill="#5B6832"/>
<path d="M651.285 2.40285V2.58456C650.558 4.52274 649.922 7.03632 649.377 10.1253C648.832 13.1537 648.378 16.5455 648.014 20.3007C647.651 23.9954 647.409 27.902 647.288 32.0207C647.227 36.1393 647.318 40.2277 647.56 44.2857C647.803 48.2832 648.226 52.1596 648.832 55.9148C649.438 59.6095 650.255 62.9104 651.285 65.8177V65.9994H629.844C629.844 62.8499 630.238 60.0335 631.025 57.5502C631.873 55.0063 632.782 52.7047 633.751 50.6454C634.72 48.5861 635.598 46.769 636.385 45.1943C637.233 43.5589 637.657 42.1053 637.657 40.8334C637.657 40.3488 637.506 39.9854 637.203 39.7431C636.9 39.5009 636.507 39.4706 636.022 39.6523C634.144 40.3185 631.964 40.8031 629.481 41.1059C626.997 41.4087 624.423 41.4996 621.758 41.3785C619.154 41.2573 616.549 40.9242 613.945 40.3791C611.401 39.834 609.099 39.0466 607.04 38.0169C604.981 36.9267 603.315 35.6245 602.043 34.1103C600.832 32.5961 600.226 30.779 600.226 28.6592C600.226 27.3267 600.68 25.9942 601.589 24.6617C602.498 23.2686 603.739 21.9361 605.314 20.6642C606.889 19.3317 608.736 18.09 610.856 16.9392C612.976 15.7278 615.217 14.5771 617.579 13.4868C618.366 13.0628 618.457 12.6389 617.852 12.2149C617.246 11.7909 616.368 11.5789 615.217 11.5789C614.308 11.5789 613.46 11.6395 612.673 11.7606C611.886 11.8818 611.068 12.0635 610.22 12.3057C609.433 12.4875 608.554 12.7297 607.585 13.0326C606.616 13.2748 605.496 13.5171 604.224 13.7594C602.709 14.1834 601.952 13.9108 601.952 12.9417V3.22052C601.952 2.97825 602.195 2.76626 602.679 2.58456C603.164 2.40285 603.769 2.28172 604.496 2.22115C605.284 2.10001 606.132 2.00916 607.04 1.94859C607.949 1.88802 608.857 1.85774 609.766 1.85774C614.066 1.85774 617.518 2.52399 620.123 3.85649C622.788 5.18899 624.12 6.91518 624.12 9.03507C624.12 10.4887 623.575 11.9121 622.485 13.3051C621.455 14.6982 620.365 16.1518 619.214 17.666C618.064 19.1802 617.125 20.8459 616.398 22.6629C615.671 24.4194 615.641 26.3878 616.307 28.5683C617.094 31.1122 618.518 33.0201 620.577 34.292C622.636 35.5639 624.817 36.2605 627.118 36.3816C630.147 36.5633 632.448 36.1696 634.023 35.2005C635.598 34.2314 636.476 32.8686 636.658 31.1122C636.84 29.7191 636.567 28.0838 635.84 26.2061C635.113 24.3285 634.296 22.2086 633.387 19.8465C632.479 17.4843 631.631 14.8496 630.843 11.9423C630.117 9.03507 629.783 5.85524 629.844 2.40285H651.285Z" fill="#5B6832"/>
<path d="M669.091 65.8177C670.181 63.7584 670.968 61.2145 671.453 58.1861C671.998 55.0972 672.271 51.1905 672.271 46.4662V9.85274C672.271 8.82308 672.089 8.15683 671.725 7.85399C671.423 7.55115 670.847 7.46029 669.999 7.58143C669.03 7.76314 667.91 8.36882 666.638 9.39848C665.366 10.4281 664.064 11.7606 662.731 13.396C661.399 15.0313 660.066 16.9089 658.734 19.0288C657.462 21.0881 656.281 23.2989 655.19 25.661C654.888 26.3878 654.403 26.6301 653.737 26.3878C653.131 26.085 652.828 25.5096 652.828 24.6617V2.40285H706.522V24.6617C706.522 25.5096 706.189 26.085 705.523 26.3878C704.917 26.6301 704.463 26.3878 704.16 25.661C703.07 23.2989 701.858 21.0881 700.526 19.0288C699.254 16.9089 697.952 15.0313 696.619 13.396C695.287 11.7606 693.984 10.4281 692.712 9.39848C691.44 8.36882 690.32 7.76314 689.351 7.58143C688.503 7.46029 687.897 7.55115 687.534 7.85399C687.231 8.15683 687.08 8.82308 687.08 9.85274V46.4662C687.08 51.1905 687.322 55.0972 687.806 58.1861C688.351 61.2145 689.169 63.7584 690.259 65.8177V65.9994H669.091V65.8177Z" fill="#5B6832"/>
<path d="M737.072 67.4531C733.135 67.4531 729.44 66.6354 725.988 65C722.596 63.3041 719.598 61.0025 716.993 58.0953C714.45 55.188 712.39 51.7659 710.815 47.829C709.241 43.892 708.362 39.6523 708.181 35.1097C707.999 30.3248 708.544 25.873 709.816 21.7544C711.149 17.5752 712.996 13.9411 715.358 10.8521C717.781 7.76313 720.627 5.34041 723.898 3.58393C727.229 1.82746 730.833 0.949219 734.71 0.949219C738.586 0.949219 742.25 1.79717 745.703 3.49308C749.155 5.12842 752.153 7.39973 754.697 10.307C757.302 13.2143 759.391 16.6364 760.966 20.5733C762.541 24.5102 763.419 28.75 763.601 33.2926C763.782 38.0775 763.207 42.5595 761.874 46.7387C760.602 50.8574 758.755 54.4612 756.332 57.5502C753.97 60.6391 751.124 63.0619 747.792 64.8183C744.522 66.5748 740.948 67.4531 737.072 67.4531ZM725.443 36.2907C726.836 46.1028 728.653 53.159 730.894 57.4593C733.195 61.7596 736.193 63.6978 739.888 63.2739C743.583 62.7893 745.945 60.094 746.975 55.188C748.004 50.2214 747.792 42.5293 746.339 32.1115C745.006 22.2995 743.189 15.2433 740.888 10.943C738.586 6.58206 735.588 4.64388 731.893 5.12842C728.198 5.5524 725.836 8.24768 724.807 13.2143C723.777 18.1809 723.989 25.873 725.443 36.2907Z" fill="#5B6832"/>
<path d="M799.513 65.8177C800.604 63.7584 801.391 61.2145 801.876 58.1861C802.421 55.0972 802.693 51.1905 802.693 46.4662V9.85274C802.693 8.82308 802.512 8.15683 802.148 7.85399C801.845 7.55115 801.27 7.46029 800.422 7.58143C799.453 7.76314 798.332 8.36882 797.06 9.39848C795.789 10.4281 794.486 11.7606 793.154 13.396C791.821 15.0313 790.489 16.9089 789.156 19.0288C787.884 21.0881 786.703 23.2989 785.613 25.661C785.31 26.3878 784.826 26.6301 784.159 26.3878C783.554 26.085 783.251 25.5096 783.251 24.6617V2.40285H836.945V24.6617C836.945 25.5096 836.611 26.085 835.945 26.3878C835.34 26.6301 834.885 26.3878 834.582 25.661C833.492 23.2989 832.281 21.0881 830.948 19.0288C829.676 16.9089 828.374 15.0313 827.042 13.396C825.709 11.7606 824.407 10.4281 823.135 9.39848C821.863 8.36882 820.743 7.76314 819.774 7.58143C818.926 7.46029 818.32 7.55115 817.956 7.85399C817.654 8.15683 817.502 8.82308 817.502 9.85274V46.4662C817.502 51.1905 817.745 55.0972 818.229 58.1861C818.774 61.2145 819.592 63.7584 820.682 65.8177V65.9994H799.513V65.8177Z" fill="#5B6832"/>
<path d="M855.229 65.9994C853.109 65.9994 851.202 65.6966 849.506 65.0909C847.81 64.4852 846.356 63.6675 845.145 62.6379C843.933 61.5477 842.994 60.2757 842.328 58.8221C841.662 57.3079 841.329 55.6725 841.329 53.9161C841.329 49.6763 843.267 45.9211 847.143 42.6504C851.02 39.3191 856.895 36.3513 864.769 33.7469C865.314 33.5652 865.708 33.3229 865.95 33.0201C866.192 32.6566 866.253 32.3235 866.132 32.0207C866.071 31.7178 865.798 31.4756 865.314 31.2939C864.89 31.1122 864.284 31.0516 863.497 31.1122C861.861 31.2333 859.711 31.8693 857.046 33.0201C854.442 34.1103 851.686 35.4731 848.779 37.1084C846.417 38.5015 844.721 38.8952 843.691 38.2895C842.722 37.6232 842.237 36.0182 842.237 33.4743V21.9361C842.237 17.2118 841.965 13.3354 841.42 10.307C840.935 7.21802 840.148 4.64388 839.058 2.58456V2.40285H883.121V18.302C883.121 19.7556 882.394 20.2402 880.94 19.7556C879.366 19.2105 877.761 18.6957 876.125 18.2111C874.49 17.7266 872.885 17.3026 871.31 16.9392C869.796 16.5152 868.342 16.2124 866.949 16.0307C865.617 15.7884 864.496 15.6673 863.588 15.6673C861.65 15.6673 860.075 16.1215 858.863 17.0301C857.652 17.878 857.046 19.0591 857.046 20.5733V23.6623C857.046 25.1159 857.379 26.1153 858.046 26.6604C858.712 27.1449 859.53 27.4175 860.499 27.4781C861.528 27.5386 862.649 27.4781 863.86 27.2964C865.072 27.1147 866.222 27.0238 867.313 27.0238C869.069 27.0238 870.492 27.4175 871.583 28.2049C872.673 28.9923 873.218 30.0522 873.218 31.3847C873.218 32.5961 872.794 33.6257 871.946 34.4737C871.098 35.3216 869.645 36.1999 867.585 37.1084C863.164 38.986 860.044 40.5305 858.227 41.7419C856.471 42.9532 855.593 44.1646 855.593 45.376C855.593 46.0422 855.835 46.6479 856.32 47.193C856.865 47.6775 857.561 48.1318 858.409 48.5558C859.318 48.9192 860.317 49.222 861.407 49.4643C862.497 49.646 863.618 49.7369 864.769 49.7369C867.676 49.7369 870.492 49.434 873.218 48.8283C875.944 48.1621 878.487 47.2233 880.85 46.0119C881.637 45.588 882.212 45.4365 882.576 45.5577C882.939 45.6182 883.121 46.0725 883.121 46.9204V65.9994H855.229Z" fill="#5B6832"/>
<path d="M884.655 65.9994V65.8177C886.532 61.9414 887.592 57.7319 887.835 53.1893C888.077 48.5861 887.956 43.9526 887.471 39.2889C887.047 34.5645 886.532 29.9008 885.927 25.2976C885.321 20.6944 885.139 16.3941 885.382 12.3966C885.624 9.06535 886.654 6.37007 888.471 4.31075C890.348 2.25143 892.831 1.22177 895.92 1.22177C897.616 1.22177 899.676 1.37319 902.098 1.67604C904.582 1.97888 907.126 2.28172 909.73 2.58456C912.395 2.82683 914.999 3.00854 917.543 3.12967C920.148 3.19024 922.419 3.03882 924.357 2.67541C925.569 2.43314 926.507 2.16058 927.174 1.85774C927.9 1.5549 928.355 1.70632 928.536 2.312C929.566 4.61359 929.96 6.76376 929.717 8.76251C929.475 10.7007 928.718 12.3966 927.446 13.8502C926.235 15.3039 924.569 16.4547 922.449 17.3026C920.39 18.09 917.998 18.4837 915.272 18.4837C913.697 18.4837 912.274 18.3928 911.002 18.2111C909.791 18.0294 908.246 17.8174 906.368 17.5752C904.188 17.3329 902.189 17.0906 900.372 16.8484C898.555 16.5455 897.011 16.6667 895.739 17.2118C894.467 17.7569 893.498 18.9077 892.831 20.6642C892.165 22.3601 891.893 25.0856 892.014 28.8409C892.074 31.0819 892.408 33.2926 893.013 35.4731C893.679 37.593 894.588 39.622 895.739 41.5602C897.738 44.8914 900.16 47.6776 903.007 49.9186C905.854 52.099 908.852 53.1893 912.001 53.1893C912.728 53.1893 913.485 53.0681 914.273 52.8258C915.06 52.523 915.787 52.099 916.453 51.5539C917.119 50.9482 917.664 50.2214 918.088 49.3735C918.512 48.4649 918.724 47.4353 918.724 46.2845C918.664 44.2857 918.3 42.6807 917.634 41.4693C916.968 40.1974 916.12 39.198 915.09 38.4712C914.061 37.7444 912.91 37.169 911.638 36.745C910.427 36.321 909.245 35.8668 908.095 35.3822C906.035 34.5948 904.037 33.8377 902.098 33.1109C900.16 32.3841 898.737 31.3241 897.828 29.9311C896.92 28.4169 896.647 26.933 897.011 25.4793C897.435 24.0257 898.404 22.8749 899.918 22.0269C900.584 21.6635 901.493 21.4213 902.644 21.3001C903.855 21.179 905.157 21.4213 906.55 22.0269C907.035 22.3298 907.065 22.6326 906.641 22.9355C905.551 24.1468 904.854 25.237 904.551 26.2061C904.249 27.1752 904.249 28.0535 904.551 28.8409C904.854 29.6282 905.369 30.2945 906.096 30.8396C906.883 31.3847 907.792 31.8693 908.821 32.2932C910.76 33.0806 912.758 33.7772 914.818 34.3828C916.938 34.9885 918.967 35.6245 920.905 36.2907C922.843 36.8964 924.63 37.6232 926.265 38.4712C927.961 39.2586 929.384 40.2882 930.535 41.5602C931.686 42.7715 932.534 44.2857 933.079 46.1028C933.624 47.8593 933.745 50.0397 933.442 52.6441C933.14 54.7035 932.473 56.5811 931.444 58.277C930.475 59.9123 929.172 61.3054 927.537 62.4562C925.902 63.607 923.903 64.5155 921.541 65.1817C919.239 65.7874 916.635 66.06 913.727 65.9994H884.655Z" fill="#5B6832"/>
<path d="M949.571 66.5445C947.633 66.5445 945.816 66.1508 944.12 65.3635C942.424 64.5761 940.94 63.4858 939.668 62.0928C938.457 60.6997 937.487 59.0947 936.761 57.2776C936.034 55.4 935.67 53.371 935.67 51.1905C935.67 47.5564 936.306 44.1949 937.578 41.1059C938.85 37.9564 940.758 35.1702 943.302 32.7475C943.605 32.4447 943.908 32.3235 944.211 32.3841C944.513 32.3841 944.846 32.4447 945.21 32.5658C946.24 32.9292 947.36 33.4138 948.571 34.0194C949.783 34.6251 950.994 35.3216 952.206 36.109C953.477 36.8359 954.659 37.593 955.749 38.3803C956.9 39.1677 957.869 39.9248 958.656 40.6516C959.443 41.439 959.413 42.1356 958.565 42.7412C956.748 43.8315 955.446 45.0731 954.659 46.4662C953.871 47.8593 953.477 49.1918 953.477 50.4637C953.477 51.6751 953.841 52.7047 954.568 53.5527C955.295 54.4006 956.294 54.8246 957.566 54.8246C959.625 54.8246 961.351 53.9464 962.744 52.1899C964.198 50.3728 964.925 48.1621 964.925 45.5577C964.925 42.287 963.895 39.3494 961.836 36.745C959.777 34.08 956.748 32.051 952.751 30.6579C950.146 29.8099 947.966 28.962 946.209 28.114C944.453 27.2055 943.029 26.2364 941.939 25.2068C940.849 24.1771 940.062 23.0263 939.577 21.7544C939.153 20.4219 938.941 18.938 938.941 17.3026C938.941 15.1222 939.456 13.1234 940.486 11.3064C941.515 9.48933 942.969 7.91456 944.846 6.58206C946.785 5.24955 949.117 4.2199 951.842 3.49308C954.568 2.76626 957.596 2.40285 960.927 2.40285H988.637V2.58456C987.547 4.64388 986.729 7.21802 986.184 10.307C985.7 13.3354 985.457 17.2118 985.457 21.9361V46.4662C985.457 51.1905 985.7 55.0972 986.184 58.1861C986.729 61.2145 987.547 63.7584 988.637 65.8177V65.9994H966.106C965.076 65.9994 964.561 65.6057 964.561 64.8183C964.622 64.031 964.925 63.3344 965.47 62.7287C970.739 57.217 974.646 51.9476 977.19 46.9204C979.734 41.8327 981.006 36.7147 981.006 31.5664C981.006 29.2648 980.37 27.1449 979.098 25.2068C977.886 23.2686 976.13 21.603 973.828 20.2099C971.587 18.7563 968.862 17.6357 965.652 16.8484C962.502 16.061 958.959 15.6673 955.022 15.6673C952.417 15.6673 950.237 16.1518 948.481 17.1209C946.724 18.0294 945.846 19.1802 945.846 20.5733C945.846 22.5721 947.269 24.1165 950.116 25.2068C953.023 26.297 956.93 26.8421 961.836 26.8421C964.683 26.8421 967.075 26.9935 969.013 27.2964C971.012 27.5386 972.587 27.9626 973.737 28.5683C974.949 29.1134 975.797 29.8705 976.281 30.8396C976.826 31.8087 977.099 32.9595 977.099 34.292C977.099 35.8062 976.675 37.6535 975.827 39.834C975.04 42.0144 973.949 44.2857 972.556 46.6479C971.163 49.0101 969.558 51.4025 967.741 53.8252C965.924 56.1874 963.986 58.3073 961.927 60.1849C959.867 62.0625 957.778 63.607 955.658 64.8183C953.538 65.9691 951.509 66.5445 949.571 66.5445Z" fill="#5B6832"/>
<path d="M0.220703 183.818C1.31093 181.758 2.09832 179.215 2.58286 176.186C3.12797 173.097 3.40053 169.191 3.40053 164.466V139.936C3.40053 135.212 3.12797 131.335 2.58286 128.307C2.09832 125.218 1.31093 122.644 0.220703 120.585V120.403H27.9306C30.8379 120.403 33.5029 120.766 35.9256 121.493C38.3484 122.22 40.4077 123.25 42.1036 124.582C43.8601 125.854 45.2228 127.368 46.1919 129.125C47.161 130.881 47.6456 132.789 47.6456 134.848C47.6456 137.15 47.2216 139.27 46.3736 141.208C45.5863 143.146 44.4657 144.812 43.0121 146.205C41.619 147.598 39.9534 148.718 38.0152 149.566C36.0771 150.354 33.9875 150.747 31.7464 150.747C29.6871 150.747 27.7792 150.626 26.0227 150.384C24.3268 150.081 22.8429 149.839 21.571 149.657C20.3596 149.415 19.3905 149.294 18.6637 149.294C17.9369 149.294 17.5432 149.566 17.4826 150.112C17.4221 150.657 17.5432 151.141 17.846 151.565C18.1489 151.929 18.694 152.262 19.4814 152.565C20.3293 152.807 21.4801 153.049 22.9338 153.291C24.3874 153.473 26.2347 153.715 28.4757 154.018C35.2594 154.866 40.3774 156.532 43.8298 159.015C47.2822 161.438 49.0084 164.739 49.0084 168.918C49.0084 171.038 48.4935 173.006 47.4639 174.823C46.4342 176.64 45.0109 178.245 43.1938 179.639C41.3768 180.971 39.2569 182.031 36.8342 182.818C34.4114 183.606 31.807 183.999 29.0209 183.999H0.220703V183.818ZM7.85229 146.841C7.85229 149.869 8.45797 152.837 9.66934 155.744C10.8807 158.652 12.4555 161.256 14.3937 163.558C16.3924 165.859 18.6031 167.707 21.0259 169.1C23.5092 170.493 25.9925 171.189 28.4757 171.189C29.8688 171.189 30.9893 170.796 31.8373 170.008C32.7458 169.221 33.2001 168.191 33.2001 166.919C33.2001 165.829 32.8367 164.86 32.1098 164.012C31.4436 163.103 30.5653 162.286 29.4751 161.559C28.3849 160.772 27.113 160.075 25.6593 159.469C24.2663 158.864 22.8429 158.288 21.3893 157.743C19.9962 157.259 18.6637 156.774 17.3918 156.289C16.1198 155.805 14.9691 155.29 13.9394 154.745C12.9703 154.139 12.1829 153.473 11.5772 152.746C10.9716 152.019 10.6687 151.171 10.6687 150.202C10.6687 149.173 11.0321 148.355 11.7589 147.749C12.4858 147.083 13.4548 146.538 14.6662 146.114C15.8776 145.69 17.2101 145.327 18.6637 145.024C20.1779 144.721 21.7224 144.388 23.2972 144.024C24.6902 143.661 26.0227 143.267 27.2947 142.843C28.6272 142.359 29.778 141.844 30.7471 141.299C31.7767 140.693 32.5944 140.027 33.2001 139.3C33.8057 138.573 34.1086 137.756 34.1086 136.847C34.1086 135.212 33.1698 134.061 31.2922 133.395C29.4751 132.728 27.2038 132.395 24.4783 132.395C22.1767 132.395 19.9962 132.789 17.9369 133.576C15.9381 134.303 14.1817 135.333 12.6675 136.665C11.2138 137.937 10.0327 139.452 9.12422 141.208C8.27627 142.964 7.85229 144.842 7.85229 146.841Z" fill="#5B6832"/>
<path d="M55.8067 179.911C57.442 179.669 59.0773 178.912 60.7127 177.64C62.4086 176.368 63.9531 174.763 65.3461 172.825C66.7392 170.826 67.9506 168.615 68.9802 166.192C70.0705 163.77 70.8276 161.286 71.2515 158.742C71.7361 156.199 71.8572 153.715 71.6149 151.293C71.4332 148.87 70.767 146.689 69.6162 144.751C68.7682 143.237 67.6477 141.995 66.2547 141.026C64.9222 139.997 63.6502 138.967 62.4389 137.937C61.2881 136.847 60.3795 135.605 59.7133 134.212C59.047 132.759 58.9865 130.821 59.5316 128.398C59.7739 127.247 60.2281 126.157 60.8944 125.127C61.5606 124.098 62.3783 123.219 63.3474 122.492C64.377 121.705 65.5581 121.099 66.8906 120.675C68.2231 120.251 69.6768 120.07 71.2515 120.13L112.498 120.221C111.227 121.735 110.197 123.098 109.409 124.31C108.683 125.46 108.107 126.611 107.683 127.762C107.32 128.852 107.078 130.003 106.956 131.214C106.835 132.426 106.775 133.788 106.775 135.303V179.911H111.953C113.528 179.911 114.315 180.941 114.315 183L114.225 199.535C114.225 200.323 114.164 200.807 114.043 200.989C113.922 201.231 113.74 201.352 113.498 201.352C112.832 201.352 112.256 201.231 111.772 200.989C111.348 200.747 110.924 200.353 110.5 199.808C110.076 199.263 109.621 198.566 109.137 197.718C108.713 196.931 108.198 195.931 107.592 194.72C106.623 193.206 105.775 191.782 105.049 190.45C104.382 189.178 103.625 188.057 102.777 187.088C101.929 186.18 100.9 185.453 99.6883 184.908C98.5375 184.363 97.0536 184.06 95.2365 183.999H69.6162C67.7991 184.06 66.3455 184.363 65.2553 184.908C64.1651 185.453 63.2263 186.21 62.4389 187.179C61.6515 188.148 60.8944 189.269 60.1676 190.541C59.5013 191.813 58.7139 193.206 57.8054 194.72C56.4729 197.082 55.2918 198.778 54.2622 199.808C53.2931 200.837 52.1423 201.352 50.8098 201.352C50.5675 201.352 50.3858 201.231 50.2647 200.989C50.1435 200.807 50.083 200.323 50.083 199.535V183C50.083 180.941 50.8703 179.911 52.4451 179.911H55.8067ZM86.2422 136.484C85.3942 136.302 84.3343 136.211 83.0623 136.211C81.7904 136.151 80.4882 136.241 79.1557 136.484C77.8837 136.665 76.6421 136.968 75.4307 137.392C74.2799 137.816 73.3714 138.392 72.7052 139.118C72.0995 139.845 71.8572 140.723 71.9783 141.753C72.0995 142.783 72.796 143.994 74.068 145.387C76.4301 147.992 78.3986 150.838 79.9734 153.927C81.6087 156.956 82.5172 160.014 82.6989 163.103C82.8806 166.192 82.1538 169.191 80.5185 172.098C78.9437 175.005 76.1273 177.609 72.0692 179.911H91.9658L92.1476 146.75C92.1476 143.6 91.7236 141.147 90.8756 139.391C90.0277 137.574 88.4832 136.605 86.2422 136.484Z" fill="#5B6832"/>
<path d="M144.004 185.453C140.067 185.453 136.372 184.635 132.92 183C129.528 181.304 126.53 179.003 123.925 176.095C121.381 173.188 119.322 169.766 117.747 165.829C116.173 161.892 115.294 157.652 115.113 153.11C114.931 148.325 115.476 143.873 116.748 139.754C118.08 135.575 119.928 131.941 122.29 128.852C124.713 125.763 127.559 123.34 130.83 121.584C134.161 119.827 137.765 118.949 141.641 118.949C145.518 118.949 149.182 119.797 152.635 121.493C156.087 123.128 159.085 125.4 161.629 128.307C164.233 131.214 166.323 134.636 167.898 138.573C169.472 142.51 170.351 146.75 170.532 151.293C170.714 156.078 170.139 160.56 168.806 164.739C167.534 168.857 165.687 172.461 163.264 175.55C160.902 178.639 158.055 181.062 154.724 182.818C151.453 184.575 147.88 185.453 144.004 185.453ZM132.374 154.291C133.768 164.103 135.585 171.159 137.826 175.459C140.127 179.76 143.125 181.698 146.82 181.274C150.515 180.789 152.877 178.094 153.906 173.188C154.936 168.221 154.724 160.529 153.271 150.112C151.938 140.3 150.121 133.243 147.819 128.943C145.518 124.582 142.52 122.644 138.825 123.128C135.13 123.552 132.768 126.248 131.739 131.214C130.709 136.181 130.921 143.873 132.374 154.291Z" fill="#5B6832"/>
<path d="M202.703 183.818C203.248 182.849 203.46 181.789 203.339 180.638C203.217 179.427 202.884 178.124 202.339 176.731C201.794 175.338 201.067 173.794 200.159 172.098C199.311 170.402 198.372 168.524 197.342 166.465L191.346 154.2C190.074 155.593 189.287 157.319 188.984 159.378C188.681 161.377 188.59 163.497 188.711 165.738C188.893 167.919 189.135 170.099 189.438 172.279C189.741 174.46 189.802 176.428 189.62 178.185C189.499 179.881 188.984 181.274 188.075 182.364C187.228 183.454 185.744 183.999 183.624 183.999H173.085C172.419 183.999 171.964 183.787 171.722 183.363C171.48 182.939 171.54 182.394 171.904 181.728C172.388 180.638 172.812 179.608 173.176 178.639C173.539 177.67 173.903 176.58 174.266 175.368C174.69 174.097 175.174 172.613 175.72 170.917C176.265 169.221 176.961 167.101 177.809 164.557C179.142 160.499 180.716 157.319 182.533 155.018C184.411 152.716 186.743 151.171 189.529 150.384L183.442 137.846C182.412 135.787 181.322 133.91 180.171 132.214C179.021 130.518 177.9 128.973 176.81 127.58C175.78 126.187 174.811 124.915 173.902 123.764C172.994 122.614 172.267 121.523 171.722 120.494V120.312L195.525 120.403V120.585C194.98 121.614 194.768 122.704 194.889 123.855C195.011 125.006 195.344 126.278 195.889 127.671C196.434 129.064 197.161 130.609 198.069 132.305C198.978 133.94 199.947 135.817 200.976 137.937L205.973 148.204C207.609 147.053 208.638 145.569 209.062 143.752C209.547 141.935 209.729 139.997 209.607 137.937C209.547 135.878 209.365 133.819 209.062 131.759C208.759 129.64 208.638 127.762 208.699 126.127C208.82 124.431 209.274 123.068 210.062 122.038C210.849 120.948 212.333 120.403 214.513 120.403H224.598C226.052 120.403 226.445 121.099 225.779 122.492C225.295 123.462 224.871 124.4 224.507 125.309C224.144 126.157 223.75 127.156 223.326 128.307C222.963 129.397 222.508 130.699 221.963 132.214C221.479 133.728 220.843 135.636 220.055 137.937C218.662 141.935 216.966 144.994 214.968 147.113C213.03 149.233 210.516 150.536 207.427 151.02L214.968 166.465C215.997 168.524 217.088 170.402 218.238 172.098C219.389 173.794 220.51 175.338 221.6 176.731C222.69 178.124 223.69 179.396 224.598 180.547C225.507 181.698 226.233 182.788 226.779 183.818V183.999H202.703V183.818Z" fill="#5B6832"/>
<path d="M233.06 170.281C233.06 167.979 233.635 165.92 234.786 164.103C235.998 162.286 237.512 160.681 239.329 159.288C241.146 157.895 243.145 156.713 245.325 155.744C247.506 154.715 249.625 153.867 251.685 153.201C253.744 152.474 255.591 151.898 257.227 151.474C258.862 151.05 260.043 150.748 260.77 150.566C261.315 150.384 261.709 150.142 261.951 149.839C262.193 149.476 262.254 149.142 262.133 148.84C262.072 148.537 261.83 148.294 261.406 148.113C260.982 147.931 260.346 147.871 259.498 147.931C256.409 148.173 253.108 148.84 249.595 149.93C246.143 150.959 242.781 152.262 239.511 153.836C236.967 154.927 235.241 155.23 234.332 154.745C233.423 154.26 232.969 152.746 232.969 150.202V134.122C232.969 130.851 232.576 128.216 231.788 126.217C231.061 124.158 229.789 122.311 227.972 120.675V120.403H250.958V120.675C249.141 122.311 247.839 124.158 247.051 126.217C246.324 128.216 245.961 130.851 245.961 134.122V143.116C245.961 144.57 246.415 145.387 247.324 145.569C248.232 145.69 249.323 145.599 250.595 145.296C257.257 143.843 262.103 143.54 265.131 144.388V134.122C265.131 130.851 264.737 128.216 263.95 126.217C263.223 124.158 261.951 122.311 260.134 120.675V120.403H284.028V120.675C282.211 122.311 280.909 124.158 280.122 126.217C279.395 128.216 279.031 130.851 279.031 134.122V170.281C279.031 173.551 279.395 176.216 280.122 178.276C280.909 180.274 282.211 182.092 284.028 183.727V183.999H260.225V183.727C262.042 182.092 263.314 180.274 264.041 178.276C264.828 176.216 265.222 173.551 265.222 170.281V153.382C264.556 153.685 263.829 153.958 263.041 154.2C260.497 154.987 258.166 155.866 256.046 156.835C253.986 157.804 252.2 158.894 250.685 160.105C249.171 161.317 247.99 162.71 247.142 164.284C246.355 165.859 245.961 167.646 245.961 169.645V170.281C245.961 173.551 246.324 176.216 247.051 178.276C247.839 180.274 249.141 182.092 250.958 183.727V183.999H228.063V183.727C229.88 182.092 231.152 180.274 231.879 178.276C232.666 176.216 233.06 173.551 233.06 170.281Z" fill="#5B6832"/>
<path d="M313.997 185.453C310.06 185.453 306.365 184.635 302.913 183C299.521 181.304 296.523 179.003 293.918 176.095C291.374 173.188 289.315 169.766 287.74 165.829C286.166 161.892 285.287 157.652 285.106 153.11C284.924 148.325 285.469 143.873 286.741 139.754C288.073 135.575 289.921 131.941 292.283 128.852C294.706 125.763 297.552 123.34 300.823 121.584C304.154 119.827 307.758 118.949 311.634 118.949C315.511 118.949 319.175 119.797 322.628 121.493C326.08 123.128 329.078 125.4 331.622 128.307C334.226 131.214 336.316 134.636 337.891 138.573C339.466 142.51 340.344 146.75 340.525 151.293C340.707 156.078 340.132 160.56 338.799 164.739C337.527 168.857 335.68 172.461 333.257 175.55C330.895 178.639 328.048 181.062 324.717 182.818C321.447 184.575 317.873 185.453 313.997 185.453ZM302.368 154.291C303.761 164.103 305.578 171.159 307.819 175.459C310.12 179.76 313.118 181.698 316.813 181.274C320.508 180.789 322.87 178.094 323.9 173.188C324.929 168.221 324.717 160.529 323.264 150.112C321.931 140.3 320.114 133.243 317.812 128.943C315.511 124.582 312.513 122.644 308.818 123.128C305.123 123.552 302.761 126.248 301.732 131.214C300.702 136.181 300.914 143.873 302.368 154.291Z" fill="#5B6832"/>
<path d="M341.715 183.818C342.805 181.758 343.593 179.215 344.077 176.186C344.622 173.097 344.895 169.191 344.895 164.466V139.936C344.895 135.212 344.622 131.335 344.077 128.307C343.593 125.218 342.805 122.644 341.715 120.585V120.403H369.425C372.332 120.403 374.997 120.766 377.42 121.493C379.843 122.22 381.902 123.25 383.598 124.582C385.354 125.854 386.717 127.368 387.686 129.125C388.655 130.881 389.14 132.789 389.14 134.848C389.14 137.15 388.716 139.27 387.868 141.208C387.081 143.146 385.96 144.812 384.507 146.205C383.113 147.598 381.448 148.718 379.51 149.566C377.571 150.354 375.482 150.747 373.241 150.747C371.181 150.747 369.274 150.626 367.517 150.384C365.821 150.081 364.337 149.839 363.065 149.657C361.854 149.415 360.885 149.294 360.158 149.294C359.431 149.294 359.038 149.566 358.977 150.112C358.916 150.657 359.038 151.141 359.34 151.565C359.643 151.929 360.188 152.262 360.976 152.565C361.824 152.807 362.974 153.049 364.428 153.291C365.882 153.473 367.729 153.715 369.97 154.018C376.754 154.866 381.872 156.532 385.324 159.015C388.777 161.438 390.503 164.739 390.503 168.918C390.503 171.038 389.988 173.006 388.958 174.823C387.929 176.64 386.505 178.245 384.688 179.639C382.871 180.971 380.751 182.031 378.329 182.818C375.906 183.606 373.301 183.999 370.515 183.999H341.715V183.818ZM349.347 146.841C349.347 149.869 349.952 152.837 351.164 155.744C352.375 158.652 353.95 161.256 355.888 163.558C357.887 165.859 360.098 167.707 362.52 169.1C365.004 170.493 367.487 171.189 369.97 171.189C371.363 171.189 372.484 170.796 373.332 170.008C374.24 169.221 374.694 168.191 374.694 166.919C374.694 165.829 374.331 164.86 373.604 164.012C372.938 163.103 372.06 162.286 370.97 161.559C369.879 160.772 368.607 160.075 367.154 159.469C365.761 158.864 364.337 158.288 362.884 157.743C361.491 157.259 360.158 156.774 358.886 156.289C357.614 155.805 356.463 155.29 355.434 154.745C354.465 154.139 353.677 153.473 353.072 152.746C352.466 152.019 352.163 151.171 352.163 150.202C352.163 149.173 352.527 148.355 353.253 147.749C353.98 147.083 354.949 146.538 356.161 146.114C357.372 145.69 358.704 145.327 360.158 145.024C361.672 144.721 363.217 144.388 364.792 144.024C366.185 143.661 367.517 143.267 368.789 142.843C370.122 142.359 371.272 141.844 372.241 141.299C373.271 140.693 374.089 140.027 374.694 139.3C375.3 138.573 375.603 137.756 375.603 136.847C375.603 135.212 374.664 134.061 372.787 133.395C370.97 132.728 368.698 132.395 365.973 132.395C363.671 132.395 361.491 132.789 359.431 133.576C357.433 134.303 355.676 135.333 354.162 136.665C352.708 137.937 351.527 139.452 350.619 141.208C349.771 142.964 349.347 144.842 349.347 146.841Z" fill="#5B6832"/>
<path d="M440.002 168.555C440.668 172.673 441.334 175.914 442 178.276C442.727 180.577 443.545 182.394 444.453 183.727V183.999H419.923V183.727C420.711 182.818 421.377 181.819 421.922 180.729C422.528 179.639 422.952 178.427 423.194 177.095C423.497 175.702 423.648 174.127 423.648 172.37C423.648 170.614 423.497 168.555 423.194 166.192L420.287 146.75C419.681 142.571 418.318 139.149 416.198 136.484C414.139 133.758 411.565 132.395 408.476 132.395C406.719 132.395 405.266 133.001 404.115 134.212C403.025 135.363 402.389 136.817 402.207 138.573C402.086 140.269 402.358 141.905 403.025 143.479C403.691 145.054 404.539 146.629 405.569 148.204C406.659 149.718 407.81 151.171 409.021 152.565C410.293 153.958 411.444 155.563 412.473 157.38C413.503 159.136 414.321 161.074 414.926 163.194C415.532 165.314 415.744 167.616 415.562 170.099C415.441 171.734 414.926 173.491 414.018 175.368C413.109 177.185 411.716 178.851 409.839 180.365C408.022 181.819 405.659 182.939 402.752 183.727C399.845 184.454 396.302 184.575 392.122 184.09C390.608 183.848 390.275 183.061 391.123 181.728C392.213 180.274 393.213 178.609 394.121 176.731C395.09 174.793 395.938 172.794 396.665 170.735C397.392 168.615 397.998 166.465 398.482 164.284C398.967 162.043 399.3 159.893 399.481 157.834C399.663 155.351 399.603 153.11 399.3 151.111C399.058 149.052 398.755 146.992 398.391 144.933C398.028 142.874 397.695 140.875 397.392 138.937C397.089 136.938 397.028 134.939 397.21 132.94C397.331 131.063 397.967 129.367 399.118 127.853C400.329 126.278 401.904 124.945 403.842 123.855C405.841 122.765 408.173 121.917 410.838 121.311C413.503 120.706 416.41 120.433 419.56 120.494H433.097L440.002 168.555Z" fill="#5B6832"/>
<path d="M458.002 184.545C456.063 184.545 454.246 184.151 452.551 183.363C450.855 182.576 449.371 181.486 448.099 180.093C446.887 178.7 445.918 177.095 445.192 175.278C444.465 173.4 444.101 171.371 444.101 169.191C444.101 165.556 444.737 162.195 446.009 159.106C447.281 155.956 449.189 153.17 451.733 150.747C452.036 150.445 452.339 150.324 452.641 150.384C452.944 150.384 453.277 150.445 453.641 150.566C454.67 150.929 455.791 151.414 457.002 152.019C458.214 152.625 459.425 153.322 460.636 154.109C461.908 154.836 463.089 155.593 464.18 156.38C465.33 157.168 466.3 157.925 467.087 158.652C467.874 159.439 467.844 160.136 466.996 160.741C465.179 161.831 463.877 163.073 463.089 164.466C462.302 165.859 461.908 167.192 461.908 168.464C461.908 169.675 462.272 170.705 462.999 171.553C463.725 172.401 464.725 172.825 465.997 172.825C468.056 172.825 469.782 171.946 471.175 170.19C472.629 168.373 473.356 166.162 473.356 163.558C473.356 160.287 472.326 157.349 470.267 154.745C468.207 152.08 465.179 150.051 461.182 148.658C458.577 147.81 456.397 146.962 454.64 146.114C452.884 145.206 451.46 144.236 450.37 143.207C449.28 142.177 448.492 141.026 448.008 139.754C447.584 138.422 447.372 136.938 447.372 135.303C447.372 133.122 447.887 131.123 448.916 129.306C449.946 127.489 451.4 125.915 453.277 124.582C455.216 123.25 457.547 122.22 460.273 121.493C462.999 120.766 466.027 120.403 469.358 120.403H497.068V120.585C495.978 122.644 495.16 125.218 494.615 128.307C494.131 131.335 493.888 135.212 493.888 139.936V164.466C493.888 169.191 494.131 173.097 494.615 176.186C495.16 179.215 495.978 181.758 497.068 183.818V183.999H474.537C473.507 183.999 472.992 183.606 472.992 182.818C473.053 182.031 473.356 181.334 473.901 180.729C479.17 175.217 483.077 169.948 485.621 164.92C488.165 159.833 489.437 154.715 489.437 149.566C489.437 147.265 488.801 145.145 487.529 143.207C486.317 141.269 484.561 139.603 482.259 138.21C480.018 136.756 477.293 135.636 474.083 134.848C470.933 134.061 467.39 133.667 463.453 133.667C460.848 133.667 458.668 134.152 456.911 135.121C455.155 136.029 454.277 137.18 454.277 138.573C454.277 140.572 455.7 142.117 458.547 143.207C461.454 144.297 465.361 144.842 470.267 144.842C473.113 144.842 475.506 144.994 477.444 145.296C479.443 145.539 481.018 145.963 482.168 146.568C483.38 147.113 484.228 147.871 484.712 148.84C485.257 149.809 485.53 150.959 485.53 152.292C485.53 153.806 485.106 155.654 484.258 157.834C483.471 160.014 482.38 162.286 480.987 164.648C479.594 167.01 477.989 169.402 476.172 171.825C474.355 174.187 472.417 176.307 470.358 178.185C468.298 180.062 466.209 181.607 464.089 182.818C461.969 183.969 459.94 184.545 458.002 184.545Z" fill="#5B6832"/>
<path d="M514.578 183.999C512.458 183.999 510.55 183.697 508.854 183.091C507.158 182.485 505.705 181.668 504.493 180.638C503.282 179.548 502.343 178.276 501.677 176.822C501.011 175.308 500.677 173.673 500.677 171.916C500.677 167.676 502.616 163.921 506.492 160.65C510.368 157.319 516.243 154.351 524.117 151.747C524.662 151.565 525.056 151.323 525.298 151.02C525.541 150.657 525.601 150.324 525.48 150.021C525.419 149.718 525.147 149.476 524.662 149.294C524.238 149.112 523.633 149.052 522.845 149.112C521.21 149.233 519.06 149.869 516.395 151.02C513.79 152.11 511.035 153.473 508.127 155.108C505.765 156.501 504.069 156.895 503.04 156.289C502.07 155.623 501.586 154.018 501.586 151.474V139.936C501.586 135.212 501.313 131.335 500.768 128.307C500.284 125.218 499.496 122.644 498.406 120.585V120.403H542.469V136.302C542.469 137.756 541.743 138.24 540.289 137.756C538.714 137.211 537.109 136.696 535.474 136.211C533.838 135.727 532.233 135.303 530.659 134.939C529.144 134.515 527.691 134.212 526.298 134.031C524.965 133.788 523.845 133.667 522.936 133.667C520.998 133.667 519.423 134.122 518.212 135.03C517.001 135.878 516.395 137.059 516.395 138.573V141.662C516.395 143.116 516.728 144.115 517.394 144.66C518.06 145.145 518.878 145.418 519.847 145.478C520.877 145.539 521.997 145.478 523.209 145.296C524.42 145.115 525.571 145.024 526.661 145.024C528.418 145.024 529.841 145.418 530.931 146.205C532.021 146.992 532.567 148.052 532.567 149.385C532.567 150.596 532.143 151.626 531.295 152.474C530.447 153.322 528.993 154.2 526.934 155.108C522.512 156.986 519.393 158.531 517.576 159.742C515.819 160.953 514.941 162.165 514.941 163.376C514.941 164.042 515.183 164.648 515.668 165.193C516.213 165.678 516.91 166.132 517.758 166.556C518.666 166.919 519.666 167.222 520.756 167.464C521.846 167.646 522.967 167.737 524.117 167.737C527.025 167.737 529.841 167.434 532.567 166.828C535.292 166.162 537.836 165.223 540.198 164.012C540.986 163.588 541.561 163.437 541.924 163.558C542.288 163.618 542.469 164.073 542.469 164.92V183.999H514.578Z" fill="#5B6832"/>
<path d="M560.538 183.818C561.629 181.758 562.416 179.215 562.901 176.186C563.446 173.097 563.718 169.191 563.718 164.466V127.853C563.718 126.823 563.537 126.157 563.173 125.854C562.87 125.551 562.295 125.46 561.447 125.581C560.478 125.763 559.357 126.369 558.085 127.398C556.813 128.428 555.511 129.761 554.179 131.396C552.846 133.031 551.514 134.909 550.181 137.029C548.909 139.088 547.728 141.299 546.638 143.661C546.335 144.388 545.851 144.63 545.184 144.388C544.579 144.085 544.276 143.51 544.276 142.662V120.403H597.97V142.662C597.97 143.51 597.636 144.085 596.97 144.388C596.364 144.63 595.91 144.388 595.607 143.661C594.517 141.299 593.306 139.088 591.973 137.029C590.701 134.909 589.399 133.031 588.067 131.396C586.734 129.761 585.432 128.428 584.16 127.398C582.888 126.369 581.768 125.763 580.798 125.581C579.951 125.46 579.345 125.551 578.981 125.854C578.679 126.157 578.527 126.823 578.527 127.853V164.466C578.527 169.191 578.769 173.097 579.254 176.186C579.799 179.215 580.617 181.758 581.707 183.818V183.999H560.538V183.818Z" fill="#5B6832"/>
<path d="M617.998 183.818C619.088 181.758 619.876 179.215 620.36 176.186C620.905 173.097 621.178 169.191 621.178 164.466V139.936C621.178 135.212 620.905 131.335 620.36 128.307C619.876 125.218 619.088 122.644 617.998 120.585V120.403H639.167C641.711 120.403 642.983 122.159 642.983 125.672C642.983 127.792 642.559 129.73 641.711 131.487C640.863 133.183 639.772 134.758 638.44 136.211C637.168 137.665 635.775 139.028 634.261 140.299C632.807 141.571 631.414 142.843 630.082 144.115C628.81 145.327 627.75 146.629 626.902 148.022C626.054 149.354 625.63 150.808 625.63 152.383C625.63 153.594 626.054 154.654 626.902 155.563C627.75 156.411 628.779 156.835 629.991 156.835C632.111 156.835 634.23 155.805 636.35 153.746C638.47 151.686 640.378 149.021 642.074 145.751C643.77 142.419 645.133 138.725 646.162 134.667C647.253 130.548 647.798 126.49 647.798 122.492C647.798 121.099 648.373 120.403 649.524 120.403H665.332C666.059 120.403 666.634 120.645 667.058 121.13C667.543 121.614 667.361 122.704 666.513 124.4C663.909 129.488 660.578 134.424 656.52 139.209C652.461 143.994 647.889 148.658 642.801 153.201C641.589 154.23 641.165 155.048 641.529 155.654C641.892 156.259 642.771 156.289 644.164 155.744L648.525 154.018C650.281 153.352 651.916 153.261 653.431 153.746C655.005 154.23 656.217 155.26 657.065 156.835L662.152 166.374C665.06 171.825 667.301 175.883 668.875 178.548C670.511 181.213 671.692 182.97 672.419 183.818V183.999H656.338C654.036 183.999 652.098 183.424 650.523 182.273C649.009 181.122 647.646 179.396 646.435 177.095C645.405 175.217 644.345 173.279 643.255 171.28C642.165 169.281 641.075 167.495 639.984 165.92C638.894 164.284 637.804 162.952 636.714 161.922C635.684 160.893 634.685 160.378 633.716 160.378C632.868 160.378 632.171 160.893 631.626 161.922C631.081 162.952 630.808 164.194 630.808 165.647C630.808 167.767 631.626 169.857 633.261 171.916C634.957 173.975 637.592 176.55 641.165 179.639C642.559 180.85 643.164 181.88 642.983 182.727C642.801 183.575 642.074 183.999 640.802 183.999H617.998V183.818Z" fill="#5B6832"/>
<path d="M687.439 139.118C687.439 140.209 687.742 141.329 688.348 142.48C689.014 143.631 689.922 144.721 691.073 145.751C692.224 146.72 693.526 147.659 694.98 148.567C696.494 149.415 698.129 150.112 699.886 150.657C701.037 151.081 701.824 151.595 702.248 152.201C702.733 152.807 702.914 153.443 702.793 154.109C702.733 154.775 702.399 155.472 701.794 156.199C701.249 156.925 700.582 157.592 699.795 158.197C698.644 159.045 697.463 159.954 696.252 160.923C695.101 161.892 694.132 162.952 693.344 164.103C692.618 165.193 692.194 166.344 692.073 167.555C691.951 168.767 692.375 170.038 693.344 171.371C694.616 173.127 695.949 173.915 697.342 173.733C698.735 173.551 700.037 172.915 701.249 171.825C702.521 170.674 703.55 169.281 704.338 167.646C705.186 166.011 705.67 164.648 705.791 163.558V141.571C705.791 139.27 705.337 137.362 704.428 135.848C703.52 134.273 702.369 133.092 700.976 132.305C699.644 131.517 698.19 131.093 696.615 131.033C695.04 130.911 693.556 131.154 692.163 131.759C690.831 132.365 689.71 133.304 688.802 134.576C687.893 135.787 687.439 137.301 687.439 139.118ZM722.508 169.554C722.387 175.247 724.355 179.245 728.413 181.546C728.837 181.97 729.049 182.485 729.049 183.091C729.049 183.697 728.686 183.999 727.959 183.999H700.613C699.886 183.999 699.553 183.727 699.613 183.182C699.734 182.637 700.007 182.152 700.431 181.728C702.369 180.577 703.792 178.972 704.701 176.913C705.61 174.793 706.034 172.34 705.973 169.554C705.125 171.734 704.004 173.794 702.611 175.732C701.218 177.67 699.674 179.366 697.978 180.82C696.343 182.213 694.556 183.333 692.618 184.181C690.74 185.029 688.893 185.453 687.076 185.453C685.138 185.453 683.32 185.12 681.625 184.454C679.989 183.848 678.566 183 677.354 181.91C676.143 180.759 675.174 179.427 674.447 177.912C673.72 176.338 673.357 174.672 673.357 172.915C673.357 170.917 673.872 169.1 674.901 167.464C675.931 165.829 677.264 164.375 678.899 163.103C680.595 161.831 682.503 160.741 684.623 159.833C686.803 158.924 689.014 158.167 691.255 157.561C693.314 157.016 695.071 156.532 696.524 156.108C698.038 155.623 698.796 155.048 698.796 154.382C698.796 154.139 698.341 153.867 697.433 153.564C696.524 153.201 695.374 152.807 693.98 152.383C692.648 151.898 691.164 151.323 689.529 150.657C687.893 149.93 686.319 149.052 684.804 148.022C683.351 146.992 682.049 145.751 680.898 144.297C679.747 142.783 679.02 141.026 678.717 139.028C678.354 136.726 678.445 134.455 678.99 132.214C679.595 129.973 680.716 127.974 682.351 126.217C683.987 124.4 686.137 122.947 688.802 121.856C691.527 120.766 694.798 120.221 698.614 120.221C706.548 120.221 712.514 122.553 716.512 127.217C720.57 131.82 722.569 138.452 722.508 147.113V169.554Z" fill="#5B6832"/>
<path d="M763.935 183.999C762.663 183.999 761.936 183.575 761.754 182.727C761.572 181.88 762.178 180.85 763.571 179.639C765.388 178.124 766.781 176.731 767.75 175.459C768.719 174.187 769.416 173.006 769.84 171.916C770.324 170.826 770.597 169.796 770.658 168.827C770.718 167.797 770.748 166.737 770.748 165.647C770.748 164.194 770.476 162.952 769.931 161.922C769.386 160.893 768.689 160.378 767.841 160.378C766.872 160.378 765.842 160.893 764.752 161.922C763.723 162.952 762.663 164.284 761.572 165.92C760.482 167.495 759.392 169.281 758.302 171.28C757.211 173.279 756.151 175.217 755.122 177.095C753.91 179.396 752.517 181.122 750.943 182.273C749.428 183.424 747.521 183.999 745.219 183.999H729.138V183.818C729.865 182.97 731.016 181.213 732.591 178.548C734.226 175.883 736.497 171.825 739.404 166.374L744.492 156.835C745.34 155.26 746.521 154.23 748.035 153.746C749.61 153.261 751.276 153.352 753.032 154.018L757.393 155.744C758.786 156.289 759.664 156.259 760.028 155.654C760.391 155.048 759.967 154.23 758.756 153.201C753.608 148.658 749.004 144.024 744.946 139.3C740.949 134.515 737.648 129.549 735.044 124.4C734.196 122.704 733.984 121.614 734.408 121.13C734.892 120.645 735.498 120.403 736.225 120.403H752.033C753.184 120.403 753.759 121.099 753.759 122.492C753.759 124.915 754.001 127.489 754.486 130.215C755.031 132.88 755.697 135.545 756.485 138.21C757.333 140.814 758.302 143.328 759.392 145.751C760.482 148.113 761.603 150.202 762.753 152.019C764.389 154.624 765.873 156.259 767.205 156.925C768.598 157.531 769.719 157.501 770.567 156.835C771.475 156.168 772.051 154.987 772.293 153.291C772.535 151.595 772.353 149.688 771.748 147.568C771.203 145.629 770.446 143.631 769.477 141.571C768.568 139.452 767.599 137.392 766.569 135.393C765.54 133.395 764.54 131.487 763.571 129.67C762.663 127.853 761.936 126.278 761.391 124.945C760.846 123.552 760.603 122.462 760.664 121.675C760.785 120.827 761.36 120.403 762.39 120.403H779.743L792.371 120.585C793.159 120.585 793.522 120.978 793.461 121.766C793.461 122.492 793.189 123.522 792.644 124.855C792.159 126.127 791.463 127.641 790.554 129.397C789.706 131.093 788.798 132.91 787.829 134.848C786.92 136.787 786.042 138.785 785.194 140.845C784.407 142.843 783.801 144.812 783.377 146.75C782.832 149.052 782.68 151.02 782.923 152.655C783.225 154.23 783.801 155.351 784.649 156.017C785.497 156.623 786.587 156.653 787.919 156.108C789.313 155.563 790.857 154.291 792.553 152.292C793.946 150.657 795.248 148.718 796.46 146.477C797.671 144.176 798.731 141.723 799.639 139.118C800.548 136.453 801.275 133.728 801.82 130.942C802.365 128.095 802.638 125.279 802.638 122.492C802.638 121.099 803.213 120.403 804.364 120.403H820.172C820.899 120.403 821.474 120.645 821.898 121.13C822.383 121.614 822.201 122.704 821.353 124.4C818.749 129.549 815.417 134.515 811.359 139.3C807.362 144.024 802.789 148.658 797.641 153.201C796.429 154.23 796.005 155.048 796.369 155.654C796.732 156.259 797.61 156.289 799.003 155.744L803.364 154.018C805.121 153.352 806.756 153.261 808.27 153.746C809.845 154.23 811.057 155.26 811.904 156.835L816.992 166.374C819.899 171.825 822.14 175.883 823.715 178.548C825.351 181.213 826.532 182.97 827.259 183.818V183.999H811.178C808.876 183.999 806.938 183.424 805.363 182.273C803.849 181.122 802.486 179.396 801.275 177.095C800.245 175.217 799.185 173.279 798.095 171.28C797.005 169.281 795.915 167.495 794.824 165.92C793.734 164.284 792.644 162.952 791.554 161.922C790.524 160.893 789.525 160.378 788.555 160.378C787.708 160.378 787.011 160.893 786.466 161.922C785.921 162.952 785.648 164.194 785.648 165.647C785.648 166.737 785.709 167.797 785.83 168.827C786.012 169.796 786.375 170.826 786.92 171.916C787.465 173.006 788.253 174.187 789.282 175.459C790.312 176.731 791.735 178.124 793.552 179.639C794.945 180.85 795.551 181.88 795.369 182.727C795.188 183.575 794.461 183.999 793.189 183.999H763.935Z" fill="#5B6832"/>
<path d="M834.084 179.911C835.719 179.669 837.354 178.912 838.99 177.64C840.686 176.368 842.23 174.763 843.623 172.825C845.016 170.826 846.228 168.615 847.257 166.192C848.348 163.77 849.105 161.286 849.529 158.742C850.013 156.199 850.134 153.715 849.892 151.293C849.71 148.87 849.044 146.689 847.893 144.751C847.045 143.237 845.925 141.995 844.532 141.026C843.199 139.997 841.927 138.967 840.716 137.937C839.565 136.847 838.657 135.605 837.99 134.212C837.324 132.759 837.264 130.821 837.809 128.398C838.051 127.247 838.505 126.157 839.172 125.127C839.838 124.098 840.655 123.219 841.625 122.492C842.654 121.705 843.835 121.099 845.168 120.675C846.5 120.251 847.954 120.07 849.529 120.13L890.776 120.221C889.504 121.735 888.474 123.098 887.687 124.31C886.96 125.46 886.384 126.611 885.96 127.762C885.597 128.852 885.355 130.003 885.234 131.214C885.112 132.426 885.052 133.788 885.052 135.303V179.911H890.23C891.805 179.911 892.593 180.941 892.593 183L892.502 199.535C892.502 200.323 892.441 200.807 892.32 200.989C892.199 201.231 892.017 201.352 891.775 201.352C891.109 201.352 890.533 201.231 890.049 200.989C889.625 200.747 889.201 200.353 888.777 199.808C888.353 199.263 887.899 198.566 887.414 197.718C886.99 196.931 886.475 195.931 885.87 194.72C884.9 193.206 884.052 191.782 883.326 190.45C882.659 189.178 881.902 188.057 881.054 187.088C880.206 186.18 879.177 185.453 877.965 184.908C876.815 184.363 875.331 184.06 873.514 183.999H847.893C846.076 184.06 844.623 184.363 843.532 184.908C842.442 185.453 841.503 186.21 840.716 187.179C839.929 188.148 839.172 189.269 838.445 190.541C837.778 191.813 836.991 193.206 836.083 194.72C834.75 197.082 833.569 198.778 832.539 199.808C831.57 200.837 830.419 201.352 829.087 201.352C828.845 201.352 828.663 201.231 828.542 200.989C828.421 200.807 828.36 200.323 828.36 199.535V183C828.36 180.941 829.148 179.911 830.722 179.911H834.084ZM864.519 136.484C863.671 136.302 862.611 136.211 861.339 136.211C860.068 136.151 858.765 136.241 857.433 136.484C856.161 136.665 854.919 136.968 853.708 137.392C852.557 137.816 851.649 138.392 850.982 139.118C850.377 139.845 850.134 140.723 850.255 141.753C850.377 142.783 851.073 143.994 852.345 145.387C854.707 147.992 856.676 150.838 858.25 153.927C859.886 156.956 860.794 160.014 860.976 163.103C861.158 166.192 860.431 169.191 858.796 172.098C857.221 175.005 854.404 177.609 850.346 179.911H870.243L870.425 146.75C870.425 143.6 870.001 141.147 869.153 139.391C868.305 137.574 866.76 136.605 864.519 136.484Z" fill="#5B6832"/>
<path d="M893.571 120.403H916.103C917.132 120.403 917.617 120.797 917.556 121.584C917.556 122.371 917.284 123.068 916.739 123.674C911.409 129.185 907.472 134.485 904.928 139.573C902.445 144.6 901.203 149.688 901.203 154.836C901.203 157.137 901.809 159.257 903.02 161.196C904.292 163.134 906.048 164.83 908.289 166.283C910.591 167.676 913.317 168.767 916.466 169.554C919.676 170.341 923.25 170.735 927.187 170.735C930.276 170.735 932.789 170.16 934.727 169.009C936.726 167.797 937.726 166.162 937.726 164.103C937.726 161.559 936.726 159.651 934.727 158.379C932.789 157.107 930.306 156.32 927.278 156.017C924.249 155.714 920.918 155.835 917.284 156.38C913.71 156.925 910.319 157.713 907.108 158.742C906.079 159.045 905.473 158.319 905.291 156.562C905.049 153.836 905.322 151.414 906.109 149.294C906.896 147.174 907.987 145.387 909.38 143.934C910.833 142.48 912.469 141.39 914.286 140.663C916.163 139.876 918.041 139.482 919.919 139.482C923.068 139.482 926.006 140.148 928.731 141.481C931.517 142.813 933.91 144.63 935.909 146.932C937.968 149.233 939.573 151.959 940.724 155.108C941.935 158.197 942.541 161.529 942.541 165.102C942.541 167.949 941.996 170.553 940.905 172.915C939.876 175.217 938.392 177.186 936.454 178.821C934.576 180.456 932.335 181.728 929.731 182.637C927.187 183.545 924.37 183.999 921.281 183.999H893.571V183.818C894.662 181.758 895.449 179.215 895.934 176.186C896.479 173.097 896.751 169.191 896.751 164.466V139.936C896.751 135.212 896.479 131.335 895.934 128.307C895.449 125.218 894.662 122.644 893.571 120.585V120.403ZM966.344 120.403V120.585C965.314 122.462 964.466 124.945 963.8 128.034C963.134 131.063 962.649 134.424 962.347 138.119C962.104 141.814 962.013 145.751 962.074 149.93C962.195 154.048 962.437 158.137 962.801 162.195C963.225 166.253 963.8 170.16 964.527 173.915C965.314 177.609 966.223 180.91 967.253 183.818V183.999H944.903C947.507 177.276 949.234 170.644 950.081 164.103C950.929 157.501 951.141 151.353 950.717 145.66C950.293 139.966 949.415 134.909 948.083 130.487C946.75 126.066 945.236 122.704 943.54 120.403H966.344Z" fill="#5B6832"/>
<path d="M984.72 184.545C982.964 184.605 981.329 184.302 979.814 183.636C978.3 182.97 976.998 182.061 975.908 180.91C974.817 179.699 973.939 178.306 973.273 176.731C972.667 175.096 972.365 173.37 972.365 171.553C972.425 169.372 972.546 167.283 972.728 165.284C972.97 163.285 973.212 161.286 973.455 159.288C973.697 157.289 973.909 155.23 974.091 153.11C974.333 150.929 974.484 148.597 974.545 146.114C974.605 143.812 974.515 141.45 974.272 139.028C974.091 136.544 973.758 134.182 973.273 131.941C972.849 129.639 972.213 127.52 971.365 125.581C970.578 123.643 969.609 122.038 968.458 120.766V120.585L985.901 120.494C987.537 120.494 988.809 121.009 989.717 122.038C990.686 123.068 991.383 124.34 991.807 125.854C992.291 127.368 992.564 129.004 992.625 130.76C992.746 132.456 992.806 134.031 992.806 135.484C992.685 138.997 992.352 142.45 991.807 145.841C991.262 149.233 990.656 152.504 989.99 155.654C989.324 158.742 988.688 161.68 988.082 164.466C987.476 167.192 987.173 169.645 987.173 171.825C987.113 173.642 987.204 174.975 987.446 175.823C987.688 176.61 988.142 177.004 988.809 177.004C989.717 177.004 990.595 176.095 991.443 174.278C992.291 172.461 992.988 170.099 993.533 167.192C993.654 166.526 993.806 165.526 993.987 164.194C994.23 162.801 994.502 161.256 994.805 159.56C995.108 157.804 995.411 155.987 995.714 154.109C996.077 152.171 996.41 150.293 996.713 148.476C997.016 146.599 997.258 144.903 997.44 143.388C997.682 141.814 997.894 140.572 998.076 139.664C999.226 132.88 1001.07 127.883 1003.62 124.673C1006.22 121.463 1009.25 119.827 1012.7 119.767C1014.34 119.767 1015.88 120.1 1017.34 120.766C1018.79 121.372 1020.06 122.22 1021.15 123.31C1022.24 124.4 1023.06 125.703 1023.61 127.217C1024.21 128.731 1024.48 130.336 1024.42 132.032C1024.42 134.212 1024.21 136.363 1023.79 138.482C1023.42 140.542 1023 142.631 1022.51 144.751C1022.09 146.871 1021.67 149.052 1021.24 151.293C1020.88 153.534 1020.67 155.896 1020.61 158.379C1020.55 160.681 1020.7 163.073 1021.06 165.556C1021.42 167.979 1021.94 170.341 1022.61 172.643C1023.27 174.884 1024.06 176.974 1024.97 178.912C1025.94 180.85 1027.03 182.425 1028.24 183.636V183.818L1010.79 183.999C1007.89 183.999 1005.8 182.909 1004.53 180.729C1003.25 178.548 1002.68 175.187 1002.8 170.644C1002.86 166.586 1003.47 163.073 1004.62 160.105C1005.77 157.077 1007.04 154.351 1008.43 151.929C1009.89 149.506 1011.19 147.235 1012.34 145.115C1013.49 142.995 1014.07 140.784 1014.07 138.482C1014.13 136.665 1013.73 135.151 1012.88 133.94C1012.04 132.728 1011.01 132.123 1009.8 132.123C1006.34 132.123 1003.5 139.24 1001.26 153.473L998.257 172.007C997.652 175.944 996.107 179.033 993.624 181.274C991.141 183.454 988.173 184.545 984.72 184.545ZM997.167 118.222C999.045 118.222 1000.74 117.889 1002.25 117.223C1003.83 116.557 1005.19 115.648 1006.34 114.497C1007.55 113.347 1008.46 111.954 1009.07 110.318C1009.74 108.683 1010.07 106.866 1010.07 104.867V103.686C1009.95 103.202 1009.74 102.959 1009.43 102.959C1009.01 102.959 1008.77 103.202 1008.71 103.686C1008.4 105.443 1007.19 106.896 1005.07 108.047C1003.01 109.198 1000.38 109.773 997.167 109.773C993.836 109.773 991.141 109.198 989.081 108.047C987.022 106.896 985.871 105.443 985.629 103.686C985.508 103.202 985.296 102.959 984.993 102.959C984.569 102.959 984.327 103.202 984.266 103.686V104.867C984.266 106.805 984.569 108.592 985.175 110.227C985.78 111.863 986.659 113.286 987.809 114.497C988.96 115.648 990.323 116.557 991.898 117.223C993.472 117.889 995.229 118.222 997.167 118.222Z" fill="#5B6832"/>
<path d="M414.655 303.453C411.02 303.453 407.598 302.635 404.388 301C401.178 299.365 398.362 297.154 395.939 294.368C393.516 291.521 391.548 288.19 390.034 284.374C388.58 280.558 387.762 276.44 387.581 272.018C387.399 267.354 387.914 262.963 389.125 258.845C390.336 254.665 392.063 251.031 394.304 247.942C396.545 244.853 399.21 242.4 402.299 240.583C405.388 238.766 408.719 237.858 412.292 237.858C414.291 237.858 416.108 237.979 417.743 238.221C419.439 238.403 421.105 238.585 422.74 238.766C424.376 238.948 426.072 239.009 427.828 238.948C429.585 238.887 431.553 238.585 433.733 238.039C434.642 237.858 435.278 238.191 435.641 239.039C436.368 241.219 436.701 243.248 436.641 245.126C436.58 246.943 436.187 248.548 435.46 249.941C434.733 251.274 433.673 252.334 432.28 253.121C430.887 253.908 429.191 254.302 427.192 254.302C425.072 254.302 423.013 254.06 421.014 253.575C419.076 253.091 417.198 252.455 415.381 251.667C413.625 250.88 411.899 250.002 410.203 249.033C408.567 248.003 406.993 247.004 405.478 246.034C404.449 245.368 403.419 245.308 402.389 245.853C401.36 246.337 400.421 247.246 399.573 248.578C398.786 249.911 398.119 251.576 397.574 253.575C397.029 255.574 396.757 257.724 396.757 260.026C396.757 264.205 397.302 267.93 398.392 271.201C399.543 274.471 401.118 277.257 403.116 279.559C405.176 281.861 407.598 283.617 410.384 284.828C413.171 286.04 416.229 286.645 419.561 286.645C425.254 286.645 430.009 284.616 433.824 280.558C434.188 280.134 434.642 280.074 435.187 280.377C435.732 280.679 436.005 281.527 436.005 282.92C436.005 285.828 435.46 288.523 434.369 291.006C433.279 293.49 431.765 295.67 429.827 297.548C427.889 299.365 425.617 300.818 423.013 301.909C420.409 302.938 417.622 303.453 414.655 303.453Z" fill="#5B6832"/>
<path d="M454.69 301.999C452.57 301.999 450.662 301.697 448.966 301.091C447.27 300.485 445.817 299.668 444.605 298.638C443.394 297.548 442.455 296.276 441.789 294.822C441.123 293.308 440.789 291.673 440.789 289.916C440.789 285.676 442.728 281.921 446.604 278.65C450.48 275.319 456.355 272.351 464.229 269.747C464.774 269.565 465.168 269.323 465.41 269.02C465.653 268.657 465.713 268.324 465.592 268.021C465.532 267.718 465.259 267.476 464.774 267.294C464.35 267.112 463.745 267.052 462.957 267.112C461.322 267.233 459.172 267.869 456.507 269.02C453.902 270.11 451.147 271.473 448.239 273.108C445.877 274.501 444.181 274.895 443.152 274.289C442.183 273.623 441.698 272.018 441.698 269.474V257.936C441.698 253.212 441.425 249.335 440.88 246.307C440.396 243.218 439.608 240.644 438.518 238.585V238.403H482.582V254.302C482.582 255.756 481.855 256.24 480.401 255.756C478.826 255.211 477.221 254.696 475.586 254.211C473.951 253.727 472.345 253.303 470.771 252.939C469.256 252.515 467.803 252.212 466.41 252.031C465.077 251.788 463.957 251.667 463.048 251.667C461.11 251.667 459.535 252.122 458.324 253.03C457.113 253.878 456.507 255.059 456.507 256.573V259.662C456.507 261.116 456.84 262.115 457.506 262.66C458.173 263.145 458.99 263.417 459.959 263.478C460.989 263.539 462.109 263.478 463.321 263.296C464.532 263.115 465.683 263.024 466.773 263.024C468.53 263.024 469.953 263.418 471.043 264.205C472.133 264.992 472.679 266.052 472.679 267.385C472.679 268.596 472.255 269.626 471.407 270.474C470.559 271.322 469.105 272.2 467.046 273.108C462.624 274.986 459.505 276.531 457.688 277.742C455.932 278.953 455.053 280.165 455.053 281.376C455.053 282.042 455.296 282.648 455.78 283.193C456.325 283.678 457.022 284.132 457.87 284.556C458.778 284.919 459.778 285.222 460.868 285.464C461.958 285.646 463.079 285.737 464.229 285.737C467.137 285.737 469.953 285.434 472.679 284.828C475.404 284.162 477.948 283.223 480.31 282.012C481.098 281.588 481.673 281.437 482.036 281.558C482.4 281.618 482.582 282.072 482.582 282.92V301.999H454.69Z" fill="#5B6832"/>
<path d="M484.388 301.999V282.92C484.388 282.072 484.57 281.618 484.933 281.558C485.296 281.437 485.872 281.588 486.659 282.012C489.021 283.223 491.565 284.162 494.291 284.828C497.016 285.434 499.833 285.737 502.74 285.737C505.042 285.737 506.98 285.464 508.555 284.919C510.19 284.374 511.008 283.496 511.008 282.284C511.008 281.679 510.826 281.073 510.462 280.467C510.16 279.862 509.584 279.256 508.736 278.65C507.949 277.984 506.828 277.288 505.375 276.561C503.921 275.773 502.104 274.925 499.924 274.017C497.864 273.108 496.411 272.23 495.563 271.382C494.715 270.534 494.291 269.505 494.291 268.293C494.291 266.961 494.836 265.901 495.926 265.113C497.016 264.326 498.44 263.932 500.196 263.932C507.343 263.932 510.917 262.812 510.917 260.571C510.917 259.965 510.674 259.359 510.19 258.754C509.705 258.148 509.039 257.603 508.191 257.118C507.404 256.573 506.435 256.149 505.284 255.846C504.133 255.544 502.891 255.392 501.559 255.392C500.287 255.392 499.106 255.423 498.016 255.483C496.986 255.544 495.926 255.634 494.836 255.756C493.746 255.877 492.595 256.028 491.384 256.21C490.233 256.392 488.931 256.634 487.477 256.937C486.023 257.24 485.296 256.755 485.296 255.483V238.403H501.559C505.193 238.403 508.524 238.827 511.553 239.675C514.581 240.523 517.155 241.734 519.275 243.309C521.456 244.884 523.152 246.792 524.363 249.033C525.574 251.274 526.18 253.787 526.18 256.573C526.18 260.389 525.211 263.357 523.273 265.477C521.395 267.597 518.912 268.747 515.823 268.929C513.461 269.05 511.189 268.959 509.009 268.657C506.889 268.354 505.223 268.142 504.012 268.021C503.225 267.96 502.589 268.021 502.104 268.202C501.68 268.384 501.408 268.626 501.286 268.929C501.226 269.232 501.317 269.565 501.559 269.929C501.801 270.231 502.195 270.474 502.74 270.655C510.614 273.26 516.489 276.076 520.365 279.105C524.242 282.072 526.18 285.676 526.18 289.916C526.18 291.673 525.847 293.308 525.181 294.822C524.514 296.276 523.575 297.548 522.364 298.638C521.153 299.668 519.699 300.485 518.003 301.091C516.307 301.697 514.399 301.999 512.28 301.999H484.388Z" fill="#5B6832"/>
<path d="M556.476 303.453C552.539 303.453 548.845 302.635 545.392 301C542 299.304 539.002 297.003 536.398 294.095C533.854 291.188 531.795 287.766 530.22 283.829C528.645 279.892 527.767 275.652 527.585 271.11C527.404 266.325 527.949 261.873 529.221 257.754C530.553 253.575 532.4 249.941 534.763 246.852C537.185 243.763 540.032 241.34 543.303 239.584C546.634 237.827 550.238 236.949 554.114 236.949C557.99 236.949 561.655 237.797 565.107 239.493C568.56 241.128 571.558 243.4 574.102 246.307C576.706 249.214 578.796 252.636 580.37 256.573C581.945 260.51 582.823 264.75 583.005 269.293C583.187 274.077 582.611 278.56 581.279 282.739C580.007 286.857 578.16 290.461 575.737 293.55C573.375 296.639 570.528 299.062 567.197 300.818C563.926 302.575 560.353 303.453 556.476 303.453ZM544.847 272.291C546.24 282.103 548.057 289.159 550.298 293.459C552.6 297.76 555.598 299.698 559.293 299.274C562.987 298.789 565.349 296.094 566.379 291.188C567.409 286.221 567.197 278.529 565.743 268.112C564.411 258.3 562.594 251.243 560.292 246.943C557.99 242.582 554.992 240.644 551.298 241.128C547.603 241.552 545.241 244.248 544.211 249.214C543.182 254.181 543.394 261.873 544.847 272.291Z" fill="#5B6832"/>
<path d="M589.282 288.281C589.282 285.979 589.858 283.92 591.009 282.103C592.22 280.286 593.734 278.681 595.551 277.288C597.368 275.895 599.367 274.713 601.547 273.744C603.728 272.715 605.848 271.867 607.907 271.201C609.966 270.474 611.814 269.898 613.449 269.474C615.084 269.05 616.266 268.748 616.992 268.566C617.537 268.384 617.931 268.142 618.173 267.839C618.416 267.476 618.476 267.142 618.355 266.84C618.295 266.537 618.052 266.294 617.628 266.113C617.204 265.931 616.568 265.871 615.72 265.931C612.631 266.173 609.33 266.84 605.818 267.93C602.365 268.959 599.004 270.262 595.733 271.836C593.189 272.927 591.463 273.23 590.554 272.745C589.646 272.26 589.192 270.746 589.192 268.202V252.122C589.192 248.851 588.798 246.216 588.01 244.217C587.284 242.158 586.012 240.311 584.195 238.675V238.403H607.18V238.675C605.363 240.311 604.061 242.158 603.274 244.217C602.547 246.216 602.183 248.851 602.183 252.122V261.116C602.183 262.57 602.638 263.387 603.546 263.569C604.455 263.69 605.545 263.599 606.817 263.296C613.479 261.843 618.325 261.54 621.353 262.388V252.122C621.353 248.851 620.96 246.216 620.172 244.217C619.445 242.158 618.173 240.311 616.356 238.675V238.403H640.251V238.675C638.434 240.311 637.131 242.158 636.344 244.217C635.617 246.216 635.254 248.851 635.254 252.122V288.281C635.254 291.551 635.617 294.216 636.344 296.276C637.131 298.274 638.434 300.092 640.251 301.727V301.999H616.447V301.727C618.264 300.092 619.536 298.274 620.263 296.276C621.05 294.216 621.444 291.551 621.444 288.281V271.382C620.778 271.685 620.051 271.958 619.264 272.2C616.72 272.987 614.388 273.866 612.268 274.835C610.209 275.804 608.422 276.894 606.908 278.105C605.394 279.317 604.212 280.71 603.365 282.284C602.577 283.859 602.183 285.646 602.183 287.645V288.281C602.183 291.551 602.547 294.216 603.274 296.276C604.061 298.274 605.363 300.092 607.18 301.727V301.999H584.286V301.727C586.103 300.092 587.375 298.274 588.101 296.276C588.889 294.216 589.282 291.551 589.282 288.281Z" fill="#5B6832"/>
</svg>
